<?xml version="1.0" standalone="no"?>
<!DOCTYPE svg PUBLIC "-//W3C//DTD SVG 20010904//EN"
 "http://www.w3.org/TR/2001/REC-SVG-20010904/DTD/svg10.dtd">
<svg version="1.0" xmlns="http://www.w3.org/2000/svg"
 width="16.000000pt" height="16.000000pt" viewBox="0 0 16.000000 16.000000"
 preserveAspectRatio="xMidYMid meet">
<metadata>
Created by potrace 1.11, written by Peter Selinger 2001-2013
</metadata>
<g transform="translate(0.000000,16.000000) scale(0.004000,-0.004000)"
fill="#000000" stroke="none">
<path d="M36 3558 c-8 -60 -3 -188 7 -188 5 0 5 -4 2 -10 -3 -5 -1 -10 5 -10
7 0 9 -8 5 -20 -4 -12 -2 -26 3 -33 16 -21 23 -49 10 -41 -6 4 -4 -3 5 -17 9
-13 17 -30 17 -39 -1 -11 -4 -9 -12 5 -6 11 -17 24 -25 28 -7 5 -10 13 -7 19
5 8 1 9 -10 5 -10 -4 -22 -7 -28 -7 -7 0 -8 -18 -3 -52 4 -29 8 -61 8 -70 1
-17 11 -23 31 -19 5 1 4 -5 -3 -13 -7 -9 -18 -13 -24 -9 -6 3 -7 1 -3 -5 4 -6
13 -9 21 -5 9 3 15 -1 15 -9 0 -8 14 -36 31 -64 18 -27 32 -51 31 -54 0 -3 4
-4 9 -2 12 3 11 -15 -1 -23 -6 -3 -10 -1 -10 5 0 6 -10 14 -22 19 -32 12 -41
-9 -27 -61 7 -24 12 -46 11 -50 -1 -5 2 -8 7 -8 5 0 14 -14 21 -31 8 -17 22
-39 32 -49 15 -13 16 -20 7 -25 -8 -6 -10 -4 -4 5 6 9 4 11 -4 6 -7 -5 -9 -11
-6 -15 6 -6 10 -7 35 -10 6 0 2 -11 -10 -23 -13 -15 -16 -24 -9 -29 8 -5 8 -8
0 -13 -7 -5 -6 -14 4 -30 8 -12 12 -26 8 -29 -3 -4 -1 -7 5 -7 7 0 12 -7 12
-16 0 -14 -2 -15 -17 -3 -16 13 -17 12 -5 -3 8 -10 17 -16 22 -15 16 4 62 -56
57 -75 -4 -15 -2 -17 8 -8 9 8 14 6 18 -9 3 -12 -1 -22 -9 -25 -17 -7 -18 -33
-1 -39 9 -4 9 -6 -1 -6 -7 -1 1 -15 18 -32 16 -18 30 -38 30 -45 0 -8 7 -14
15 -14 16 0 16 -1 20 -38 1 -12 6 -26 10 -30 5 -4 5 1 2 11 -4 9 -2 17 3 17 6
0 10 -7 10 -16 0 -8 3 -13 8 -11 4 3 12 -1 19 -8 16 -17 -7 -38 -33 -30 -11 3
-8 0 6 -7 25 -12 40 -27 40 -39 0 -15 -29 -16 -56 -3 -26 14 -30 13 -41 -2 -9
-13 -10 -21 -2 -31 6 -7 9 -20 5 -28 -3 -9 -2 -14 3 -10 5 3 15 -8 23 -25 7
-16 19 -30 26 -30 7 0 10 -4 7 -10 -3 -5 -1 -10 6 -10 7 0 9 -9 6 -22 -6 -22
-5 -22 8 -5 13 18 14 18 17 -4 2 -12 10 -24 18 -26 13 -4 13 -3 0 6 -10 7 -11
11 -2 11 6 0 20 -8 30 -17 10 -10 30 -24 45 -32 26 -14 37 -46 17 -53 -6 -2 0
-9 12 -17 21 -13 22 -13 9 2 -7 10 -10 17 -5 17 5 0 17 -14 27 -32 17 -30 17
-31 0 -17 -10 7 7 -11 37 -42 30 -31 58 -55 61 -53 3 2 6 -4 6 -12 0 -11 -7
-8 -26 8 -14 13 -27 26 -29 31 -2 4 -9 4 -15 0 -7 -3 -9 -3 -5 2 7 7 -14 35
-27 35 -10 0 -54 48 -50 54 3 3 -3 -1 -13 -10 -12 -12 -14 -18 -4 -21 6 -3 12
-11 12 -20 0 -8 7 -21 16 -30 8 -9 13 -22 10 -30 -3 -8 -2 -12 3 -8 12 7 54
-52 46 -65 -4 -6 1 -7 11 -3 12 4 15 3 10 -5 -4 -7 -2 -12 6 -12 7 0 19 -9 25
-20 11 -16 10 -18 -2 -14 -8 4 -15 10 -15 15 0 5 -6 9 -13 9 -8 0 -24 12 -38
27 -13 14 -18 23 -10 18 9 -5 12 -4 8 2 -4 6 -18 8 -32 6 -27 -6 -24 -20 14
-60 12 -12 21 -26 21 -31 0 -4 14 -18 30 -30 17 -13 30 -30 30 -39 0 -9 3 -13
7 -10 3 4 13 -2 20 -13 8 -11 18 -18 22 -15 5 2 19 -7 32 -21 12 -13 28 -23
35 -20 6 2 20 -3 31 -12 19 -17 37 -24 61 -25 6 0 12 -3 12 -7 0 -4 7 -7 15
-8 8 -1 22 -3 30 -4 8 -1 15 -6 15 -11 0 -5 -8 -6 -17 -2 -10 4 -26 8 -35 10
-9 2 -25 8 -35 13 -10 5 -26 8 -35 7 -10 -2 -18 2 -18 9 0 7 -6 13 -12 14 -49
6 -61 10 -79 25 -10 9 -26 17 -34 17 -8 0 -15 5 -15 11 0 5 -4 8 -9 4 -13 -7
-10 -44 3 -42 6 1 10 -3 11 -10 0 -6 4 -15 9 -20 5 -5 6 -2 2 7 -4 8 4 3 17
-12 14 -15 28 -24 33 -20 4 4 4 1 0 -5 -4 -8 -1 -13 9 -13 8 0 18 -7 21 -15 4
-8 10 -12 15 -9 5 3 9 1 9 -5 0 -8 36 -25 50 -23 3 0 11 -4 18 -10 6 -6 12 -7
12 -3 0 4 7 2 15 -5 8 -6 20 -8 26 -4 8 4 9 3 5 -4 -7 -12 -40 -11 -52 0 -3 4
-12 4 -20 1 -8 -3 -14 -1 -14 4 0 5 -6 10 -12 11 -7 1 -24 3 -38 6 -14 2 -30
4 -36 5 -5 0 -15 13 -20 29 l-11 27 1 -31 c1 -22 11 -41 34 -62 19 -18 31 -36
27 -42 -3 -5 -1 -10 5 -10 7 0 10 7 6 18 -6 16 -5 16 7 0 8 -10 17 -15 20 -11
4 3 7 1 7 -6 0 -7 5 -9 10 -6 6 3 10 1 10 -4 0 -6 5 -10 11 -9 6 2 14 -4 16
-12 4 -13 3 -13 -6 0 -8 12 -11 12 -11 1 0 -10 -3 -11 -14 -2 -7 6 -22 8 -31
4 -14 -5 -16 -3 -10 7 5 9 4 11 -4 6 -8 -6 -9 -12 -2 -20 6 -7 7 -17 3 -21 -4
-5 -1 -4 7 0 11 6 13 4 8 -7 -4 -12 0 -15 19 -13 13 1 24 -3 24 -9 0 -6 12
-13 27 -14 15 -1 29 -6 32 -10 3 -4 17 -9 31 -10 14 0 26 -6 28 -12 2 -5 8
-10 13 -10 6 0 7 6 3 13 -6 9 -4 9 7 1 14 -11 29 -11 96 -1 18 2 30 1 28 -4
-3 -4 -13 -8 -23 -7 -9 0 -37 -3 -62 -7 -79 -12 -95 -12 -102 -1 -5 8 -8 7 -8
-1 0 -6 -8 -9 -18 -6 -12 3 -19 -1 -19 -11 0 -8 4 -13 8 -10 4 2 11 -1 16 -8
4 -7 13 -13 18 -14 33 -1 85 -18 85 -26 0 -6 6 -6 14 1 8 7 17 8 20 3 2 -4 19
-7 35 -6 17 1 33 -1 35 -5 3 -4 -10 -7 -27 -8 -68 -4 -107 -10 -114 -17 -10
-10 17 -26 45 -26 12 0 22 -3 22 -7 0 -5 15 -9 32 -10 18 -2 34 -7 36 -13 2
-5 8 -10 13 -10 6 0 7 4 4 10 -8 13 5 13 25 0 13 -8 13 -11 1 -22 -9 -8 -11
-9 -7 -1 4 8 -2 11 -21 8 -16 -2 -29 -4 -30 -6 -2 -1 -8 -2 -15 -3 -16 -2 -22
-26 -6 -27 7 -1 17 -1 22 0 4 1 14 -3 22 -9 7 -7 22 -9 34 -5 12 4 20 2 20 -5
0 -6 -4 -8 -10 -5 -5 3 -10 2 -10 -4 0 -5 9 -9 19 -8 11 0 18 4 16 7 -2 3 5 7
16 7 16 2 48 -35 40 -45 -2 -2 0 -6 3 -9 5 -5 3 12 -6 46 -2 10 8 14 37 14 22
0 54 8 71 18 24 13 35 15 44 6 9 -9 11 -9 7 -1 -6 11 19 29 36 26 4 -1 7 2 7
7 0 12 39 26 61 23 9 -2 22 5 30 14 13 16 12 16 -11 4 -16 -8 -21 -8 -14 -1
14 15 54 23 54 10 0 -5 12 -9 26 -9 14 0 22 -4 19 -10 -3 -6 1 -7 9 -4 9 3 16
1 16 -5 0 -6 7 -8 15 -5 8 4 22 1 30 -6 8 -6 19 -9 25 -5 5 3 10 -2 11 -12 0
-16 1 -16 9 2 7 16 9 17 9 3 1 -12 7 -15 23 -10 17 4 20 2 14 -13 -5 -15 -4
-16 9 -5 18 15 49 5 39 -12 -6 -10 -4 -10 8 0 13 10 22 11 37 2 12 -6 21 -7
21 -3 1 4 8 -3 16 -17 8 -14 13 -17 10 -8 -4 12 0 16 16 13 11 -2 26 -9 34
-16 8 -6 14 -8 14 -4 0 4 11 0 25 -9 14 -9 25 -14 25 -11 0 3 10 0 23 -6 18
-9 20 -9 10 2 -10 10 -9 16 4 31 16 18 16 18 0 12 -13 -4 -17 -1 -17 15 0 12
-4 21 -10 21 -5 0 -10 8 -10 18 0 13 -2 14 -9 3 -6 -9 -11 -10 -15 -2 -4 6
-12 9 -17 6 -5 -4 -9 -2 -9 4 0 5 -8 10 -17 10 -21 0 -98 9 -98 11 0 3 -82 20
-105 22 -8 0 -21 5 -27 11 -9 6 -13 5 -13 -4 0 -8 -9 -4 -20 11 -16 20 -19 21
-13 5 l6 -20 -23 20 c-13 11 -20 14 -16 8 12 -22 -9 -14 -22 8 -12 19 -11 20
7 14 13 -4 21 -2 21 6 0 8 5 8 18 -2 15 -13 16 -12 4 3 -16 20 -7 40 16 36 9
-2 17 3 18 10 1 6 2 14 3 17 0 2 21 -6 46 -20 25 -13 43 -20 41 -16 -3 4 11 7
30 7 19 -1 39 -8 44 -16 5 -8 10 -10 10 -5 0 6 7 1 16 -10 8 -11 18 -19 22
-19 15 3 51 -19 46 -27 -3 -5 4 -9 15 -9 12 0 21 -4 21 -10 0 -5 8 -10 18 -10
10 0 22 -4 28 -10 6 -6 26 -4 56 5 25 7 49 11 53 7 3 -3 3 2 -1 12 -5 13 -4
17 3 13 6 -4 16 0 23 8 7 8 16 13 20 10 4 -3 11 2 14 11 4 9 9 14 12 11 4 -3
14 3 23 15 12 14 30 21 57 22 21 1 45 5 52 9 6 5 12 5 12 2 0 -4 8 1 17 11 11
11 18 13 21 5 2 -6 9 -8 14 -5 6 4 8 2 4 -4 -6 -11 60 -39 79 -33 23 7 51 7
62 -2 13 -9 6 -40 -7 -32 -5 3 -11 1 -15 -5 -10 -16 -23 -12 -30 9 -6 20 -37
22 -41 2 -1 -6 0 -7 2 -2 7 14 34 2 34 -15 0 -14 -10 -16 -77 -18 -17 -1 -29
-5 -26 -9 3 -5 -3 -8 -13 -7 -11 1 -21 1 -24 0 -10 -4 -46 -10 -72 -12 -16 -1
-28 -5 -28 -9 0 -4 -11 -6 -25 -6 -13 0 -22 3 -19 8 3 5 0 9 -5 9 -6 0 -11 -6
-11 -14 0 -8 -8 -15 -17 -15 -37 -1 -53 -5 -53 -11 0 -4 -7 -7 -15 -7 -9 0
-14 6 -11 14 4 8 1 11 -5 8 -6 -4 -8 -13 -5 -20 2 -7 1 -29 -4 -48 -6 -29 -4
-37 9 -42 8 -3 17 -1 19 4 2 6 15 11 28 11 14 0 23 4 20 9 -4 5 5 8 19 6 14
-1 25 1 25 5 0 4 15 11 33 15 17 4 39 10 47 12 8 2 22 5 30 7 9 1 21 5 28 10
11 7 16 1 13 -16 0 -5 4 -8 10 -8 6 0 9 6 6 14 -6 14 36 40 47 28 10 -9 37
-11 31 -2 -3 5 -1 11 5 15 5 3 10 1 10 -6 0 -9 4 -7 13 3 20 26 55 32 60 11 4
-14 5 -13 6 5 0 13 5 21 10 17 5 -3 12 -1 16 5 3 5 12 10 18 10 7 -1 1 -10
-12 -20 -13 -11 -18 -20 -13 -20 6 0 14 5 17 10 9 15 47 8 65 -11 8 -9 21 -14
29 -11 8 3 19 -2 25 -10 14 -18 49 -34 82 -37 11 -1 15 -7 12 -19 -4 -15 1
-18 23 -18 15 0 26 3 23 7 -2 5 -11 6 -19 2 -10 -3 -15 1 -15 13 0 12 3 15 8
8 4 -6 19 -10 34 -8 15 1 30 -1 32 -5 3 -4 19 -7 35 -6 19 1 28 -2 25 -9 -3
-6 1 -3 9 6 10 13 17 14 25 6 9 -9 16 -8 29 3 19 16 31 18 48 7 6 -4 11 2 12
13 1 10 -2 19 -6 19 -4 0 -7 11 -7 24 0 15 5 22 13 19 7 -3 13 0 13 6 0 6 15
9 34 7 19 -1 33 1 30 6 -3 4 -1 8 4 8 18 0 5 45 -14 47 -19 3 -19 3 0 -5 24
-11 10 -19 -24 -15 -55 7 -107 13 -137 15 -17 1 -30 5 -27 9 2 4 18 5 36 2 18
-2 44 -5 58 -7 14 -1 29 0 35 2 5 3 19 7 32 8 13 2 33 6 44 9 13 4 19 3 16 -2
-4 -5 0 -10 7 -10 8 0 12 7 8 15 -3 10 -1 13 6 8 7 -4 12 -2 12 3 0 6 9 11 20
11 13 0 20 7 20 20 0 17 -3 19 -19 11 -15 -8 -20 -7 -25 5 -10 25 -7 34 9 28
8 -4 17 1 21 10 3 9 10 16 16 16 5 0 6 -5 3 -11 -4 -6 2 -5 13 2 12 7 18 17
16 21 -3 4 0 9 5 9 6 1 14 2 19 3 10 2 57 36 52 37 -23 6 -67 4 -77 -4 -7 -5
-13 -6 -13 -3 0 4 -10 2 -22 -4 -22 -11 -22 -10 -4 4 10 9 22 13 27 11 4 -3 9
-2 11 2 6 16 88 54 100 47 7 -5 8 -3 3 5 -4 8 5 23 26 41 l34 29 -27 1 c-16 0
-28 -4 -28 -8 0 -5 -6 -9 -12 -10 -32 -2 -65 -9 -73 -14 -6 -3 -27 -9 -49 -12
-21 -4 -42 -9 -47 -12 -5 -3 -9 0 -9 5 0 6 8 11 18 12 25 1 44 6 77 20 17 7
33 12 37 11 9 -2 78 27 78 33 0 3 -16 -1 -35 -9 -46 -19 -44 -15 6 18 72 48
140 130 93 112 -9 -4 -23 -1 -30 5 -12 9 -13 9 -8 -4 6 -16 -28 -42 -40 -30
-3 3 -6 1 -6 -5 0 -7 -9 -12 -20 -12 -11 0 -20 -5 -20 -12 0 -6 -3 -8 -6 -5
-4 3 -16 1 -28 -5 -11 -7 -28 -13 -36 -14 -8 -1 -23 -5 -34 -9 -14 -6 -17 -5
-14 6 3 8 13 13 23 11 11 -2 14 1 9 9 -4 8 -3 10 5 5 6 -4 19 -2 28 6 9 7 18
12 20 11 9 -7 33 -2 29 6 -4 5 1 8 10 7 9 -1 30 10 47 25 17 15 35 27 41 26 5
-1 10 3 11 8 0 14 42 55 56 55 5 0 8 4 5 9 -7 11 19 33 28 23 4 -4 6 -2 5 3
-2 6 2 20 9 32 25 46 32 72 19 79 -7 4 -9 4 -5 -1 4 -4 3 -14 -3 -22 -14 -16
-33 -18 -23 -1 4 7 3 8 -4 4 -6 -4 -9 -13 -5 -21 3 -10 -2 -15 -17 -15 -11 0
-19 -3 -17 -7 3 -5 -12 -16 -32 -26 l-36 -18 38 31 c21 18 34 37 30 43 -3 7
-3 9 2 5 9 -8 32 20 60 75 11 20 24 37 29 37 5 0 6 3 3 7 -4 3 1 12 11 19 11
9 13 13 4 14 -7 0 -11 4 -8 8 2 4 -5 9 -16 9 -11 1 -23 5 -26 8 -10 9 30 75
52 87 12 6 38 26 59 45 22 20 43 31 50 26 7 -4 5 2 -3 12 -8 10 -10 16 -5 13
6 -3 16 0 23 8 7 8 10 14 8 14 -3 0 5 20 19 44 22 40 23 45 8 57 -13 11 -17
11 -20 2 -3 -7 -9 -13 -14 -13 -6 0 -7 6 -3 13 5 7 1 6 -10 -3 -10 -8 -25 -15
-34 -16 -8 -2 -18 -7 -21 -12 -3 -4 -15 -12 -26 -16 -14 -5 -11 1 10 19 17 15
30 30 30 35 0 5 3 12 8 16 4 4 -1 17 -10 28 -17 20 -17 20 0 7 15 -12 17 -12
10 4 -5 14 -3 17 9 12 12 -4 15 0 11 16 -4 18 -3 19 6 7 9 -13 11 -12 11 6 0
11 11 31 25 44 14 13 25 29 25 37 0 12 13 18 34 14 5 -1 3 6 -5 15 -12 15 -12
17 1 12 11 -4 15 3 17 28 1 24 -2 34 -13 34 -8 0 -14 7 -14 15 0 9 6 12 15 9
9 -4 15 0 15 10 0 9 6 16 13 16 9 0 9 2 -1 9 -11 7 -10 10 3 15 9 3 22 3 27
-1 7 -3 8 -1 4 5 -4 7 6 36 23 66 16 30 27 57 24 60 -3 3 0 13 8 23 8 9 10 14
4 12 -12 -7 -46 26 -37 35 9 10 24 7 17 -3 -3 -5 0 -13 6 -17 7 -4 9 -3 5 4
-3 6 2 13 11 15 17 4 17 5 1 6 -22 1 -23 24 -4 40 8 7 17 23 21 38 3 14 16 34
28 45 12 11 15 16 7 12 -12 -7 -11 -3 3 19 21 33 22 83 1 91 -8 3 -13 10 -9
15 3 5 0 13 -6 17 -9 5 -7 11 6 21 11 7 15 13 11 13 -4 0 0 7 8 16 9 8 14 20
11 25 -4 5 -1 9 5 9 6 0 9 4 6 8 -3 5 2 22 10 38 18 33 29 108 20 131 -5 11
-10 13 -20 4 -7 -6 -16 -7 -20 -3 -4 4 -6 1 -4 -7 2 -7 -5 -15 -14 -16 -18 -3
-24 6 -11 19 8 8 16 42 17 79 1 15 4 27 9 27 4 0 7 12 7 26 0 21 4 25 18 20
16 -6 16 -5 0 7 -10 8 -15 17 -11 21 4 4 6 37 5 74 -4 120 -19 131 -59 45 -15
-32 -31 -60 -35 -61 -5 -2 -6 -7 -3 -12 5 -8 -122 -202 -136 -208 -4 -2 -5
-11 -2 -20 6 -14 4 -15 -9 -5 -8 7 -18 10 -21 6 -4 -3 -7 -2 -7 4 0 5 3 13 8
17 4 4 7 11 7 14 1 4 7 18 14 31 8 14 9 21 2 17 -6 -4 -11 -3 -11 3 0 5 4 12
9 15 12 8 33 -19 23 -29 -4 -5 -1 -5 6 -1 11 7 9 13 -6 30 -18 20 -20 52 -2
41 5 -3 5 8 0 25 -5 16 -5 30 -1 30 12 0 5 48 -10 66 -9 11 -9 15 -1 10 16
-10 15 -1 -3 34 -9 17 -20 30 -25 30 -6 0 -13 0 -17 0 -5 0 -8 -4 -8 -9 0 -5
-3 -13 -7 -17 -5 -4 -8 -16 -8 -26 0 -10 -4 -18 -10 -18 -5 0 -9 -3 -7 -8 3
-12 -35 -92 -45 -92 -4 0 -8 -7 -8 -15 0 -8 -3 -15 -8 -15 -4 0 -13 -14 -21
-31 -8 -18 -19 -28 -27 -25 -8 3 -11 0 -7 -9 3 -9 -9 -31 -26 -50 -17 -20 -31
-43 -31 -51 0 -8 -4 -12 -10 -9 -6 3 -10 2 -10 -4 0 -5 -6 -16 -12 -23 -7 -7
-38 -42 -68 -78 -76 -91 -183 -200 -195 -200 -6 0 -17 -9 -25 -20 -17 -23 -35
-27 -27 -6 3 8 -1 17 -9 20 -8 3 -14 12 -14 20 0 16 -26 46 -40 46 -9 0 -7
-21 6 -63 5 -20 4 -20 -12 3 -10 14 -16 25 -14 25 3 0 -11 17 -30 37 -39 41
-56 41 -35 1 11 -20 11 -30 3 -41 -9 -10 -8 -12 2 -10 7 2 16 -9 20 -24 7 -24
6 -26 -8 -18 -28 16 -56 43 -86 82 -15 21 -32 35 -37 32 -5 -3 -6 -11 -2 -17
9 -14 14 -34 16 -59 1 -10 5 -18 10 -18 4 0 5 -4 2 -10 -3 -5 -1 -10 5 -10 7
0 9 -7 6 -16 -3 -8 -2 -13 2 -11 4 3 21 -10 39 -28 30 -30 33 -45 10 -45 -6 0
-7 3 -4 6 5 5 -58 64 -68 64 -6 0 3 -38 13 -56 6 -12 8 -24 5 -28 -3 -3 -1 -6
5 -6 7 0 12 -7 12 -16 0 -8 -5 -12 -10 -9 -5 3 -10 -1 -10 -10 0 -8 -8 -19
-17 -22 -10 -4 -21 -11 -25 -17 -4 -6 -8 -1 -8 12 0 13 -6 22 -15 22 -8 0 -15
3 -15 8 0 4 -12 8 -27 8 -56 3 -258 38 -293 51 -8 3 -25 8 -38 10 -56 9 -67
19 -66 57 1 20 4 39 7 42 3 3 3 13 0 21 -4 9 3 23 18 35 13 11 18 17 12 13 -7
-3 -13 -1 -13 4 0 6 7 11 15 11 16 0 23 12 30 47 2 10 4 20 4 22 1 2 13 -5 29
-14 15 -10 21 -12 15 -5 -9 10 -10 17 -2 27 8 9 8 13 0 13 -6 0 -11 7 -11 15
0 8 -5 15 -12 15 -6 0 -8 3 -5 7 4 3 0 15 -10 25 -9 10 -13 18 -8 18 4 0 2 7
-5 15 -7 8 -23 15 -36 15 -13 0 -24 5 -24 11 0 5 5 7 10 4 5 -3 10 -3 11 2 0
4 2 16 4 25 3 16 -16 30 -45 32 -8 1 -15 8 -16 16 0 8 -2 21 -2 28 -1 6 -16
12 -33 12 -17 0 -28 -4 -24 -10 3 -5 1 -10 -4 -10 -6 0 -11 11 -11 24 0 43
-37 59 -57 23 -12 -21 -12 -21 -24 11 -9 28 -16 33 -38 30 -18 -2 -25 -8 -23
-20 2 -12 -2 -16 -13 -12 -8 3 -13 10 -10 14 3 5 -2 15 -11 24 -19 20 -59 3
-50 -20 3 -8 1 -12 -4 -9 -5 3 -7 19 -3 35 3 18 1 30 -5 30 -5 0 -17 11 -25
24 -15 22 -15 24 1 19 13 -3 18 3 20 21 1 17 -3 26 -13 26 -8 0 -15 7 -15 15
0 9 -9 15 -25 15 -16 0 -25 -6 -25 -15 0 -8 -7 -15 -15 -15 -9 0 -15 -9 -15
-25 0 -14 4 -24 9 -23 5 2 10 1 12 -2 5 -7 -27 -51 -32 -45 -3 2 -5 -5 -6 -15
-1 -11 3 -20 8 -20 6 0 8 -4 4 -10 -3 -5 -14 -1 -25 10 -23 23 -50 16 -50 -11
0 -24 -5 -24 -31 2 -20 20 -21 20 -40 3 -11 -10 -18 -23 -15 -30 8 -21 -5 -23
-25 -3 -24 24 -49 25 -51 2 0 -10 -2 -22 -3 -28 -2 -5 -3 -14 -4 -19 0 -5 -10
-1 -21 9 -19 17 -21 17 -39 1 -12 -11 -17 -26 -14 -44 4 -25 3 -25 -10 -10
-13 16 -15 16 -36 -6 -20 -21 -21 -25 -7 -39 21 -20 20 -26 -1 -23 -24 4 -60
-40 -55 -66 1 -5 -2 -8 -7 -8 -5 0 -11 -9 -14 -21 -3 -12 -10 -18 -16 -15 -5
4 -3 -7 5 -24 9 -16 18 -30 20 -30 3 0 3 4 0 9 -3 5 3 11 13 14 15 4 19 0 16
-14 -2 -11 0 -19 6 -19 5 0 8 -5 6 -12 -1 -7 3 -12 10 -13 6 0 15 -4 20 -9 4
-5 3 -7 -2 -3 -6 3 -16 -2 -22 -12 -9 -14 -8 -18 3 -18 7 0 11 4 8 9 -3 4 0 8
6 8 6 0 15 -12 20 -26 14 -35 13 -38 -7 -23 -10 7 -7 1 7 -14 21 -24 22 -30
10 -38 -11 -8 -12 -12 -2 -16 13 -5 17 -34 5 -31 -5 1 -21 -4 -37 -11 -15 -6
-39 -12 -52 -13 -13 -1 -24 -5 -24 -9 0 -4 -8 -6 -17 -4 -10 1 -27 -1 -38 -5
-11 -4 -40 -11 -65 -14 -67 -9 -99 -15 -161 -28 -51 -10 -55 -13 -51 -36 5
-24 5 -24 -22 -7 -14 10 -26 21 -26 26 0 5 -6 9 -14 9 -18 0 -16 14 13 73 26
54 23 69 -8 38 -12 -12 -26 -21 -32 -21 -5 0 -7 -4 -4 -10 6 -10 5 -11 -34
-15 -23 -2 -24 -2 -6 11 10 8 23 14 29 14 5 0 7 3 3 6 -3 3 7 17 24 31 16 14
29 33 29 43 0 10 4 20 10 22 5 2 12 23 16 48 l6 45 -26 -27 c-14 -15 -26 -31
-26 -35 0 -10 -27 -34 -66 -60 -21 -13 -26 -14 -19 -3 9 14 11 20 18 55 2 8 6
18 10 21 4 4 7 18 7 32 0 24 -1 24 -33 -11 -19 -19 -40 -49 -47 -66 -15 -38
-34 -53 -20 -17 5 14 7 26 5 26 -2 0 0 11 5 25 11 28 1 39 -18 19 -7 -8 -9
-14 -5 -14 4 0 3 -4 -3 -8 -7 -4 -20 -25 -29 -47 -13 -30 -19 -35 -22 -22 -3
10 -10 16 -16 14 -7 -2 -24 8 -39 24 -14 15 -28 25 -31 23 -2 -3 -33 28 -68
67 -35 40 -72 79 -81 87 -9 9 -15 19 -12 24 3 4 -2 8 -10 8 -8 0 -18 9 -21 20
-3 11 -11 20 -16 20 -5 0 -9 4 -9 10 0 5 -13 22 -29 37 -15 16 -26 35 -23 43
3 8 1 12 -3 8 -7 -7 -55 55 -55 71 0 5 -7 11 -15 15 -8 3 -15 12 -15 20 0 8
-4 16 -9 18 -5 2 -11 10 -13 18 -2 8 -10 22 -19 30 -17 17 -59 103 -59 123 0
7 -6 22 -14 32 -13 18 -14 18 -30 -1 -9 -10 -15 -22 -14 -25 2 -4 -6 -17 -17
-30 -11 -12 -15 -20 -9 -16 8 4 11 -8 10 -38 0 -25 -5 -45 -11 -45 -5 0 -3 -5
5 -10 8 -5 11 -10 6 -10 -5 0 -2 -7 5 -16 7 -9 12 -29 11 -45 -2 -17 1 -29 8
-29 7 0 10 -6 7 -13 -3 -7 1 -21 8 -31 8 -10 11 -24 8 -32 -3 -8 -2 -14 3 -13
21 4 28 -2 14 -11 -10 -7 -12 -12 -4 -17 12 -9 38 -53 30 -53 -2 0 -21 25 -43
56 -21 31 -42 63 -48 70 -7 10 -6 18 5 25 13 9 13 10 -2 6 -19 -7 -40 14 -35
34 2 8 2 11 0 7 -3 -5 -9 -8 -14 -8 -6 0 -8 4 -4 9 3 5 -6 21 -20 35 -14 15
-23 30 -20 35 3 6 -1 13 -8 18 -14 8 -31 42 -29 56 1 4 -2 7 -7 7 -5 0 -19 25
-31 55 -27 67 -47 71 -54 13z m21 -30 c-3 -8 -6 -5 -6 6 -1 11 2 17 5 13 3 -3
4 -12 1 -19z m10 -70 c-3 -8 -6 -5 -6 6 -1 11 2 17 5 13 3 -3 4 -12 1 -19z
m3870 -30 c-3 -8 -6 -5 -6 6 -1 11 2 17 5 13 3 -3 4 -12 1 -19z m-2001 -150
c3 -4 2 -8 -3 -9 -4 0 -16 -2 -25 -4 -10 -2 -18 2 -18 7 0 6 -9 3 -20 -7 -15
-14 -20 -15 -21 -4 0 10 -2 11 -6 1 -2 -6 -8 -10 -13 -7 -5 3 -16 -2 -24 -11
-9 -8 -16 -13 -16 -9 0 3 -11 -6 -24 -22 -17 -20 -34 -28 -64 -30 -39 -2 -40
-1 -24 15 34 34 89 62 108 55 12 -4 15 -3 10 5 -4 7 -1 13 8 13 9 1 25 2 35 3
11 0 22 4 26 8 10 9 65 7 71 -4z m149 -7 c-4 -14 -4 -14 8 -1 15 18 37 24 37
9 0 -6 9 -8 20 -4 12 4 20 2 20 -6 0 -7 -10 -9 -30 -5 -16 3 -30 2 -30 -3 0
-5 -8 -8 -17 -7 -10 2 -21 -1 -25 -7 -3 -6 -5 1 -5 15 1 13 8 25 15 25 7 0 11
-7 7 -16z m116 -5 c5 3 9 0 9 -5 0 -6 -7 -11 -15 -11 -8 0 -15 8 -14 18 0 10
3 12 6 4 2 -6 9 -10 14 -6z m59 -26 c11 -11 20 -17 20 -14 0 3 14 -5 31 -17
21 -15 27 -24 19 -29 -11 -7 -19 -7 -49 -1 -2 1 3 9 10 18 11 13 11 15 1 9 -9
-5 -24 3 -44 23 -17 17 -25 31 -19 31 6 0 20 -9 31 -20z m1447 -33 c-6 -15
-16 -27 -20 -27 -4 0 -12 -10 -17 -22 -6 -17 -9 -18 -9 -6 -1 9 4 20 9 23 6 4
7 11 4 17 -5 7 -2 8 6 3 10 -6 12 -4 7 8 -4 10 0 20 11 26 23 13 24 9 9 -22z
m223 -1 c0 -3 -4 -8 -10 -11 -5 -3 -10 -1 -10 4 0 6 5 11 10 11 6 0 10 -2 10
-4z m-13 -242 c0 -8 -14 -24 -31 -35 l-31 -21 23 21 c13 11 23 22 22 25 -1 19
1 26 8 26 5 0 9 -7 9 -16z m-2112 -204 c-3 -5 -1 -10 4 -10 6 0 11 6 12 13 0
9 2 9 6 -1 2 -6 9 -10 14 -7 5 4 6 -2 3 -12 -3 -10 2 -7 10 7 14 23 20 21 17
-5 -1 -5 4 -3 11 5 7 8 22 17 33 18 17 4 17 1 -5 -17 -14 -11 -19 -20 -12 -21
6 0 12 4 12 9 0 13 48 27 78 22 5 0 9 -8 9 -16 0 -9 -5 -14 -11 -12 -6 3 -10
9 -9 14 1 5 -5 10 -13 10 -11 0 -11 -4 3 -19 17 -19 37 -19 39 0 1 7 2 16 3
20 0 4 11 8 22 9 20 2 21 1 3 -12 -11 -7 -16 -17 -11 -21 4 -4 7 -2 7 4 0 7 7
12 15 12 8 0 15 5 15 11 0 6 7 4 15 -5 9 -8 23 -12 32 -9 11 5 14 3 8 -6 -6
-10 -3 -11 12 -2 11 6 23 7 27 3 4 -3 4 1 1 9 -4 10 0 16 10 16 11 0 14 -7 10
-21 -6 -21 -6 -21 9 -2 16 20 51 33 40 15 -3 -5 -10 -6 -16 -3 -7 4 -8 2 -4
-5 4 -6 12 -9 17 -6 15 10 50 15 46 7 -2 -4 7 -17 20 -29 24 -23 33 -17 11 6
-11 12 -9 13 7 7 11 -4 28 -9 39 -11 10 -3 24 -9 32 -15 7 -7 18 -9 24 -5 5 3
10 2 10 -2 0 -5 8 -9 18 -10 16 -1 52 -9 62 -14 7 -3 23 -7 38 -8 8 -1 10 -6
6 -13 -6 -9 -3 -9 9 0 9 8 20 11 25 8 8 -5 78 -17 110 -19 6 0 13 -4 13 -9 1
-4 2 -12 3 -17 0 -5 5 -13 10 -18 6 -5 6 -2 1 6 -6 11 -4 13 11 8 18 -7 18 -7
0 8 -23 17 -14 20 15 4 16 -8 18 -13 8 -25 -8 -9 -8 -14 -1 -14 6 0 9 -7 6
-15 -4 -8 -10 -13 -14 -10 -5 3 -12 1 -15 -5 -4 -6 -3 -10 2 -9 19 3 33 -2 33
-12 0 -5 -5 -7 -11 -3 -8 5 -9 2 -1 -12 7 -12 7 -25 1 -36 -7 -12 -6 -18 1
-18 7 0 8 -5 3 -12 -4 -7 -8 -48 -9 -91 -1 -60 -5 -82 -20 -99 -16 -20 -17
-21 -1 -9 17 13 18 11 15 -25 -1 -21 -9 -45 -18 -52 -13 -11 -13 -11 0 -7 12
4 15 -1 15 -20 -1 -14 -5 -28 -8 -32 -4 -3 -2 -12 4 -19 9 -11 7 -15 -6 -20
-9 -4 -12 -9 -7 -13 7 -4 5 -25 -4 -61 -8 -30 -15 -65 -16 -77 -1 -13 -6 -23
-10 -23 -4 0 -7 -3 -6 -7 8 -28 -62 -233 -91 -267 -11 -14 -12 -17 -2 -11 10
5 8 -2 -4 -23 -10 -17 -23 -28 -29 -25 -6 3 -8 3 -4 -1 9 -11 -12 -67 -23 -60
-5 3 -6 -2 -3 -10 3 -9 1 -16 -5 -16 -6 0 -11 -7 -11 -15 0 -8 -5 -15 -12 -15
-6 0 -9 -3 -5 -6 6 -6 -77 -124 -97 -136 -6 -4 -8 -8 -4 -8 5 0 -2 -11 -14
-25 -11 -13 -26 -22 -31 -18 -6 3 -7 1 -4 -4 7 -11 -148 -164 -157 -155 -3 3
-6 -1 -6 -10 0 -8 -23 -26 -52 -41 -29 -15 -48 -27 -43 -27 11 -1 -53 -30 -65
-30 -14 0 -170 107 -164 113 3 3 -3 8 -14 11 -10 4 -25 17 -32 31 -7 13 -16
22 -20 20 -7 -4 -140 130 -140 141 0 5 -12 20 -37 49 -7 7 -13 21 -13 30 0 9
-4 13 -10 10 -5 -3 -10 -1 -10 5 0 6 -7 18 -15 27 -8 8 -13 18 -10 23 3 4 -2
11 -11 14 -8 3 -12 10 -9 16 3 5 2 10 -3 10 -5 0 -15 15 -23 33 -7 17 -17 35
-22 38 -4 3 -9 12 -11 20 -1 8 -7 24 -14 35 -6 12 -8 24 -5 28 3 3 1 6 -5 6
-6 0 -13 13 -17 30 -4 16 -11 30 -16 30 -6 0 -7 5 -4 10 4 6 2 16 -3 23 -5 7
-13 26 -17 42 -5 17 -10 36 -12 43 -1 6 -4 18 -6 25 -2 6 -9 32 -16 56 -7 23
-10 46 -7 49 3 3 2 10 -3 16 -5 6 -11 29 -13 51 -2 22 -8 47 -13 54 -6 10 -4
12 6 6 11 -7 12 -6 3 6 -14 17 -23 89 -12 89 4 0 8 -5 8 -12 0 -6 3 -8 7 -4 5
4 1 13 -7 19 -10 8 -16 30 -17 61 0 31 3 43 8 35 6 -9 9 -10 9 -2 0 6 -4 15
-10 18 -5 3 -8 24 -6 46 2 21 0 39 -4 39 -10 0 -6 82 5 100 5 8 4 11 -2 7 -13
-8 -12 42 1 62 6 9 5 12 -1 8 -14 -9 -22 37 -11 57 6 11 18 15 39 11 20 -4 28
-2 24 5 -3 5 -1 10 4 10 6 0 11 -6 11 -12 0 -9 3 -8 10 2 11 17 53 23 43 6 -4
-6 0 -6 9 1 8 7 18 10 21 6 4 -3 7 -2 7 4 0 6 16 9 35 7 22 -1 33 1 29 8 -4 6
2 6 14 -1 25 -13 43 -14 22 -1 -8 5 -11 12 -7 16 3 4 15 1 24 -7 10 -7 15 -9
10 -4 -7 9 45 36 67 34 6 0 2 -4 -9 -9 -14 -6 -15 -9 -5 -9 9 -1 24 8 33 20
17 19 19 20 31 4 11 -16 13 -16 27 2 13 16 13 17 -3 4 -10 -7 -18 -9 -18 -3 0
8 54 37 72 37 3 0 10 3 14 8 11 10 16 9 9 -3z m335 -2 c0 -4 -4 -8 -9 -8 -6 0
-12 4 -15 8 -3 5 1 9 9 9 8 0 15 -4 15 -9z m1692 -123 c-2 -14 -9 -25 -14 -25
-5 0 -7 3 -5 8 2 4 7 15 10 25 9 25 15 21 9 -8z m-3642 -5 c0 -17 -2 -19 -14
-8 -10 9 -11 15 -2 20 16 11 16 10 16 -12z m223 -514 c4 -10 0 -12 -14 -9 -10
3 -16 9 -13 14 8 13 21 11 27 -5z m3083 -295 c-4 -5 4 -7 16 -4 l23 6 -22 -22
c-12 -11 -27 -21 -33 -21 -5 0 -9 -3 -7 -7 1 -5 -1 -8 -5 -8 -4 0 -15 -10 -23
-23 -9 -12 -21 -20 -26 -17 -5 4 -9 0 -9 -8 0 -14 -21 -28 -45 -32 -5 0 -8 -7
-7 -15 2 -8 0 -12 -4 -8 -4 4 -20 -2 -35 -13 -16 -11 -29 -17 -29 -14 0 4 -8
-3 -18 -16 -15 -17 -21 -19 -27 -9 -5 8 -4 11 3 6 6 -3 16 3 22 14 6 11 15 18
19 16 4 -3 23 8 42 23 19 16 37 29 41 30 17 5 95 90 90 97 -4 4 2 4 12 0 15
-5 17 -4 8 7 -12 14 -7 27 10 27 5 0 7 -4 4 -9z m-2816 -146 c0 6 5 2 11 -8 6
-9 14 -15 19 -12 5 3 11 1 14 -4 8 -12 -13 -8 -41 7 -13 7 -23 18 -23 25 0 7
4 6 10 -3 5 -8 10 -10 10 -5z m83 -58 c-5 -8 -8 -7 -11 1 -2 7 -9 9 -14 6 -7
-4 -8 -2 -4 4 4 6 13 9 21 6 8 -4 12 -11 8 -17z m2617 -51 c0 -2 -9 -6 -20 -9
-11 -3 -18 -1 -14 4 5 9 34 13 34 5z m-243 -74 c0 -10 -6 -19 -13 -19 -9 0 -9
5 -1 19 7 10 13 18 14 18 1 0 1 -8 0 -18z m-2227 4 c0 -2 -8 -10 -17 -17 -16
-13 -17 -12 -4 4 13 16 21 21 21 13z m2249 -130 c-2 -2 -14 -9 -26 -15 -18 -9
-22 -9 -18 2 3 7 15 13 26 14 12 1 20 1 18 -1z m-2122 -61 c0 -8 -4 -15 -9
-15 -5 0 -6 -5 -2 -12 4 -7 3 -8 -4 -4 -9 5 -9 13 -2 27 13 23 17 24 17 4z
m1958 5 c-3 -5 0 -10 7 -11 10 0 10 -2 -1 -6 -10 -4 -10 -7 -1 -13 9 -5 8 -9
-3 -13 -10 -4 -13 2 -11 21 2 32 2 32 10 32 3 0 2 -4 -1 -10z m-2070 -48 c-8
-9 -55 -11 -55 -3 0 4 13 7 30 7 16 0 28 -2 25 -4z m2199 -3 c3 -3 -4 -5 -14
-6 -11 -1 -20 2 -20 7 0 8 25 8 34 -1z m-2144 -3 c0 -2 -11 -6 -25 -8 -13 -3
-22 -1 -19 3 5 9 44 13 44 5z m1770 -157 c0 -6 -4 -7 -10 -4 -5 3 -10 11 -10
16 0 6 5 7 10 4 6 -3 10 -11 10 -16z m180 -5 c0 -8 -19 -13 -24 -6 -3 5 1 9 9
9 8 0 15 -2 15 -3z m90 -15 c0 -4 16 -7 35 -6 19 1 35 6 35 10 0 5 5 5 10 2
28 -17 -20 -25 -97 -16 -18 2 -16 18 2 18 8 0 15 -4 15 -8z m114 -5 c8 -21 8
-21 -8 -21 -8 0 -14 9 -13 19 2 22 13 24 21 2z m-1561 -54 c10 0 16 -4 13 -9
-3 -4 -22 -7 -43 -5 l-38 4 30 -17 c21 -11 26 -18 16 -21 -8 -3 -17 0 -19 7
-2 6 -10 11 -17 11 -8 0 -13 9 -12 19 0 11 4 18 8 15 4 -2 11 1 14 7 5 8 10 8
18 0 6 -6 19 -11 30 -11z m1297 -8 c17 -7 20 -11 8 -11 -9 -1 -20 4 -23 9 -5
8 -11 8 -19 1 -9 -8 -13 -7 -13 3 0 15 9 15 47 -2z m-1700 -4 c0 -6 -3 -8 -7
-5 -3 4 -12 2 -20 -4 -8 -8 -13 -8 -13 -1 0 10 15 19 33 21 4 1 7 -4 7 -11z
m-56 -17 c-8 -9 -43 -11 -48 -3 -2 4 9 7 25 7 15 1 26 -1 23 -4z m256 -13 c0
-6 -3 -8 -7 -5 -3 4 -13 1 -22 -6 -14 -11 -14 -10 -2 6 15 20 31 22 31 5z
m1300 0 c0 -4 -4 -8 -9 -8 -6 0 -12 4 -15 8 -3 5 1 9 9 9 8 0 15 -4 15 -9z
m171 -66 c-7 -2 -18 1 -23 6 -8 8 -4 9 13 5 13 -4 18 -8 10 -11z m-1656 -1
c-9 -8 -36 -10 -30 -2 2 4 11 8 20 8 8 0 13 -3 10 -6z m1770 -1 c-3 -5 -1 -10
4 -10 6 0 11 -8 11 -17 0 -10 -3 -14 -8 -8 -4 6 -20 12 -36 13 -16 2 -39 8
-50 13 -14 6 -8 6 20 3 26 -4 44 -2 48 5 4 6 9 11 12 11 3 0 2 -4 -1 -10z m37
-34 c-3 -5 -9 -1 -12 10 -4 10 -5 23 -2 28 3 5 9 1 12 -10 4 -10 5 -23 2 -28z"/>
<path d="M1749 3234 c-13 -16 -23 -51 -11 -39 4 4 7 12 7 18 1 7 6 11 11 10 6
-1 11 5 11 13 0 18 -2 18 -18 -2z"/>
<path d="M1700 3199 c0 -5 5 -7 10 -4 6 3 10 8 10 11 0 2 -4 4 -10 4 -5 0 -10
-5 -10 -11z"/>
<path d="M1763 2742 c-7 -4 -9 -13 -4 -21 6 -9 10 -7 14 8 3 12 4 21 4 21 -1
0 -7 -4 -14 -8z"/>
<path d="M1817 2725 c-4 -8 -3 -16 1 -19 4 -3 9 4 9 15 2 23 -3 25 -10 4z"/>
<path d="M1930 2730 c-9 -6 -10 -10 -3 -10 6 0 15 5 18 10 8 12 4 12 -15 0z"/>
<path d="M2051 2731 c-8 -5 -9 -11 -3 -15 5 -3 12 1 16 9 6 17 6 18 -13 6z"/>
<path d="M1856 2714 c-5 -14 -4 -15 9 -4 17 14 19 20 6 20 -5 0 -12 -7 -15
-16z"/>
<path d="M2130 2720 c0 -5 5 -10 10 -10 6 0 10 5 10 10 0 6 -4 10 -10 10 -5 0
-10 -4 -10 -10z"/>
<path d="M2246 2722 c-3 -5 1 -9 9 -9 8 0 15 4 15 9 0 4 -4 8 -9 8 -6 0 -12
-4 -15 -8z"/>
<path d="M1893 2705 c0 -8 4 -12 9 -9 5 3 6 10 3 15 -9 13 -12 11 -12 -6z"/>
<path d="M2343 2705 c0 -7 6 -11 14 -8 7 3 13 6 13 8 0 2 -6 5 -13 8 -8 3 -14
-1 -14 -8z"/>
<path d="M1736 2702 c-2 -4 -1 -14 4 -22 7 -11 9 -9 7 8 -1 24 -3 26 -11 14z"/>
<path d="M2165 2700 c-3 -6 1 -7 9 -4 18 7 21 14 7 14 -6 0 -13 -4 -16 -10z"/>
<path d="M1611 2674 c0 -11 3 -14 6 -6 3 7 2 16 -1 19 -3 4 -6 -2 -5 -13z"/>
<path d="M2436 2677 c3 -10 9 -15 12 -12 3 3 0 11 -7 18 -10 9 -11 8 -5 -6z"/>
<path d="M2395 2671 c-3 -5 -2 -12 3 -15 5 -3 9 1 9 9 0 17 -3 19 -12 6z"/>
<path d="M2467 2667 c-3 -8 1 -14 8 -14 7 0 11 6 8 14 -3 7 -6 13 -8 13 -2 0
-5 -6 -8 -13z"/>
<path d="M1390 2640 c0 -5 5 -10 11 -10 5 0 7 5 4 10 -3 6 -8 10 -11 10 -2 0
-4 -4 -4 -10z"/>
<path d="M1460 2640 c-9 -6 -10 -10 -3 -10 6 0 15 5 18 10 8 12 4 12 -15 0z"/>
<path d="M1496 2638 c3 -4 11 -5 19 -1 21 7 19 12 -4 10 -11 0 -18 -5 -15 -9z"/>
<path d="M2576 2642 c-3 -5 1 -9 9 -9 8 0 15 4 15 9 0 4 -4 8 -9 8 -6 0 -12
-4 -15 -8z"/>
<path d="M2630 2629 c0 -5 5 -7 10 -4 6 3 10 8 10 11 0 2 -4 4 -10 4 -5 0 -10
-5 -10 -11z"/>
<path d="M1420 2620 c-9 -6 -10 -10 -3 -10 6 0 15 5 18 10 8 12 4 12 -15 0z"/>
<path d="M1331 2604 c0 -11 3 -14 6 -6 3 7 2 16 -1 19 -3 4 -6 -2 -5 -13z"/>
<path d="M1890 2596 c0 -13 14 -37 32 -55 l32 -31 -27 -1 c-15 -1 -32 -2 -39
-3 -14 -1 -118 -102 -118 -115 0 -5 -7 -14 -15 -21 -8 -7 -14 -22 -13 -34 1
-11 -14 -46 -34 -76 -51 -81 -68 -134 -73 -221 -3 -62 -1 -79 11 -83 9 -3 12
-10 9 -16 -3 -5 -1 -10 6 -10 9 0 9 -3 0 -14 -9 -11 -9 -16 0 -22 8 -4 9 -3 5
4 -4 7 -1 12 8 12 8 0 19 -6 23 -13 4 -7 21 -21 36 -31 32 -20 30 -28 -11 -33
-15 -1 -32 -3 -37 -4 -11 -3 -13 -45 -2 -56 4 -3 7 -16 7 -27 0 -18 2 -19 11
-6 8 12 10 8 7 -16 -3 -23 -1 -31 9 -27 7 3 15 -1 18 -9 6 -15 52 -18 72 -5 9
6 11 3 8 -10 -3 -10 0 -7 7 7 7 14 17 28 23 32 5 4 10 13 10 20 0 7 8 12 18
12 13 -2 15 1 8 10 -8 9 -7 13 3 13 14 0 15 -34 2 -55 -4 -8 -2 -10 7 -6 11 4
14 -2 12 -25 -1 -17 0 -29 4 -29 3 1 20 -6 38 -15 39 -21 43 -21 43 -1 0 19
16 10 22 -13 4 -14 -2 -18 -23 -19 -16 -1 -26 3 -23 7 3 5 1 9 -5 9 -5 0 -11
-5 -13 -12 -2 -6 -22 -13 -44 -15 -61 -5 -64 -6 -64 -15 0 -4 -7 -8 -15 -8 -8
0 -15 -5 -15 -11 0 -6 -6 -17 -14 -25 -8 -7 -13 -22 -11 -31 2 -10 4 -21 4
-25 1 -5 7 -7 14 -5 6 1 11 -4 9 -11 -1 -8 2 -11 8 -7 8 5 8 11 0 20 -8 9 -8
15 0 20 6 3 8 10 5 15 -4 6 16 20 28 20 1 0 2 -25 1 -55 0 -30 3 -52 7 -49 4
2 14 -5 22 -16 7 -11 17 -17 20 -13 4 3 7 1 7 -6 0 -8 7 -11 15 -7 8 3 15 1
15 -4 0 -5 7 -6 17 -3 10 4 14 2 10 -4 -4 -5 0 -19 9 -29 14 -18 15 -18 5 3
-13 25 -6 32 29 29 14 -1 31 2 38 7 13 10 17 -3 5 -19 -5 -5 -1 -2 8 8 13 13
19 14 29 5 10 -9 11 -9 6 1 -11 19 3 33 23 23 11 -6 22 -6 32 1 11 8 11 9 -3
4 -10 -3 -18 -1 -18 4 0 17 21 22 38 8 15 -12 16 -11 4 4 -11 14 -11 22 2 46
8 16 12 33 8 36 -3 4 2 4 12 0 15 -6 17 -4 11 6 -6 9 -4 11 4 6 9 -6 9 -12 -3
-25 -10 -11 -12 -21 -6 -31 6 -10 10 -11 10 -3 0 16 57 46 70 38 6 -3 10 -1
10 4 0 6 -5 11 -11 11 -5 0 -7 5 -4 10 4 6 12 4 21 -5 9 -8 13 -19 9 -24 -3
-5 -1 -12 5 -16 6 -4 8 -10 5 -15 -3 -5 -1 -11 4 -14 10 -7 9 13 -2 31 -5 8
-1 11 12 10 11 0 17 -5 14 -11 -4 -5 1 -7 10 -3 9 3 19 2 22 -3 4 -6 -2 -10
-12 -10 -15 0 -16 -2 -3 -10 8 -5 10 -10 5 -10 -6 0 -11 -8 -11 -17 0 -12 8
-18 22 -18 12 0 21 6 20 15 -1 9 6 14 17 12 15 -3 17 4 16 47 -1 28 -6 48 -11
45 -4 -3 -8 4 -8 14 0 26 -67 93 -85 86 -12 -5 -12 -8 0 -21 21 -20 19 -26 -4
-13 -16 8 -19 17 -14 43 6 38 -13 117 -28 117 -6 0 -7 5 -4 10 4 6 3 10 -2 9
-4 -1 -16 -1 -25 0 -15 1 -15 4 -1 31 8 17 18 28 23 25 12 -8 30 19 21 33 -11
18 -30 12 -59 -18 -32 -33 -45 -66 -46 -115 -1 -22 -5 -46 -10 -54 -6 -9 -5
-12 1 -8 6 4 16 -7 23 -23 7 -17 16 -30 21 -30 5 0 9 -5 9 -11 0 -5 -4 -7 -10
-4 -5 3 -10 -1 -10 -9 0 -9 -5 -16 -10 -16 -13 0 -22 21 -24 54 0 13 -3 23 -5
21 -2 -2 -34 27 -71 65 -52 53 -69 77 -72 103 -5 43 0 57 17 57 8 0 12 -9 11
-25 -2 -13 1 -22 6 -19 5 3 7 12 4 19 -3 8 0 16 7 19 9 3 9 5 0 5 -23 2 -14
21 10 22 17 1 18 2 4 6 -9 2 -15 8 -12 13 3 5 13 6 23 3 15 -6 16 -5 2 12 -10
13 -11 16 -2 11 9 -6 12 -3 10 9 -5 27 18 29 43 3 12 -13 19 -18 15 -11 -10
18 25 9 39 -10 15 -21 26 -22 19 -3 -4 11 1 13 25 10 26 -4 33 -1 42 20 7 14
15 24 18 22 10 -7 10 48 -1 61 -5 6 -16 9 -24 6 -8 -3 -14 1 -14 11 0 9 -7 16
-15 16 -18 0 -19 11 -2 30 10 12 9 12 -5 1 -19 -14 -38 -7 -38 15 0 8 -5 14
-10 14 -6 0 -9 6 -8 13 2 6 -3 11 -9 9 -7 -1 -13 7 -13 18 0 11 5 20 11 20 5
0 8 -4 4 -10 -3 -5 6 -17 20 -26 14 -9 24 -23 21 -30 -3 -8 5 -7 24 4 16 9 25
19 20 20 -6 2 -8 8 -4 13 3 5 -1 9 -10 9 -8 0 -13 7 -11 18 1 9 9 15 16 14 8
-2 11 0 7 4 -4 4 -3 13 4 21 8 10 8 12 -4 8 -11 -4 -14 1 -13 16 2 32 23 35
31 4 l6 -25 20 22 c11 13 25 22 30 20 5 -1 7 2 4 7 -4 5 -2 20 3 34 11 29 -19
87 -45 87 -13 0 -14 -3 -4 -15 10 -13 9 -15 -9 -15 -12 0 -24 -7 -27 -15 -4
-8 -11 -15 -17 -15 -5 0 -25 -16 -43 -36 -22 -25 -37 -35 -49 -31 -9 4 -14 3
-10 -3 3 -6 1 -10 -5 -10 -6 0 -8 -4 -5 -10 12 -19 -7 -10 -40 19 -31 27 -32
29 -13 35 12 3 31 0 42 -5 20 -10 20 -10 2 5 -27 22 -15 29 19 12 43 -22 72
-4 42 26 -8 7 -13 21 -11 31 1 9 -5 21 -14 26 -14 8 -14 10 1 26 9 9 17 21 17
26 0 16 -49 61 -60 54 -5 -3 -15 3 -22 15 -7 11 -18 20 -25 20 -7 0 -13 4 -13
9 0 14 -30 41 -45 41 -8 0 -11 -7 -8 -19 4 -14 -1 -18 -21 -18 -29 0 -70 33
-60 49 4 7 2 8 -4 4 -7 -4 -12 -2 -12 3 0 6 -4 11 -10 11 -5 0 -10 -11 -10
-24z m240 -170 c0 -2 -7 -7 -16 -10 -8 -3 -12 -2 -9 4 6 10 25 14 25 6z m5
-65 c3 -5 2 -12 -3 -15 -5 -3 -9 1 -9 9 0 17 3 19 12 6z m-95 -41 c6 -11 8
-20 6 -20 -3 0 -10 9 -16 20 -6 11 -8 20 -6 20 3 0 10 -9 16 -20z m50 0 c0 -5
-5 -10 -11 -10 -5 0 -7 5 -4 10 3 6 8 10 11 10 2 0 4 -4 4 -10z m-130 -195
c-6 -15 -6 -26 1 -30 5 -4 7 -11 3 -16 -3 -5 -9 -7 -14 -4 -5 3 -14 -3 -19
-14 -14 -26 -14 -27 7 -47 16 -17 16 -17 0 -11 -10 3 -20 1 -24 -5 -4 -7 -9
-6 -15 3 -6 10 -9 11 -9 2 0 -7 -5 -13 -11 -13 -6 0 -9 6 -6 14 3 7 2 17 -3
22 -5 5 -2 24 5 42 12 28 17 31 33 23 11 -6 24 -6 33 0 12 7 12 9 -1 10 -8 1
-18 1 -22 0 -5 0 -8 3 -8 8 0 14 30 22 31 8 0 -7 4 -2 9 11 13 30 22 28 10 -3z
m253 -129 c3 -8 0 -19 -7 -25 -8 -7 -15 -4 -25 11 -7 11 -8 17 -2 13 6 -3 11
-1 11 4 0 16 17 13 23 -3z m-425 -21 c-3 -3 -9 2 -12 12 -6 14 -5 15 5 6 7 -7
10 -15 7 -18z m87 -55 c-2 -11 0 -22 5 -25 16 -10 3 -38 -20 -47 -14 -5 -21
-6 -17 -2 4 4 -1 17 -11 28 -25 28 -36 59 -20 53 7 -2 12 -11 10 -21 -2 -9 2
-16 7 -16 5 0 8 9 6 21 -3 15 0 19 10 15 8 -3 17 -1 20 4 10 16 14 11 10 -10z
m380 -218 c1 -4 5 -18 9 -31 5 -14 4 -27 -3 -32 -6 -5 -9 -6 -6 -3 2 4 -4 14
-15 23 -14 13 -16 21 -9 40 8 21 23 22 24 3z m-199 -185 c12 -14 24 -23 28
-20 3 3 -5 14 -17 24 -12 10 -17 18 -11 19 6 0 21 -12 35 -27 13 -14 18 -23
12 -19 -7 4 -13 2 -13 -4 0 -10 -40 -7 -58 4 -11 7 -8 -31 3 -41 4 -5 5 -2 0
6 -5 10 -4 12 4 7 6 -4 9 -12 6 -17 -9 -13 -35 -11 -35 3 0 6 -3 9 -6 5 -3 -3
-14 2 -24 11 -16 13 -17 19 -7 31 11 14 10 14 -8 1 -11 -8 -23 -19 -27 -25 -5
-6 -12 -5 -20 3 -9 9 -8 15 7 26 11 8 24 12 29 9 5 -4 6 -1 2 6 -6 9 -11 9
-22 0 -8 -6 -17 -9 -20 -6 -9 9 36 29 52 23 8 -3 12 -1 9 4 -14 22 60 1 81
-23z"/>
<path d="M1887 2077 c-3 -7 3 -13 14 -13 13 0 15 3 7 13 -6 7 -12 13 -13 13
-2 0 -5 -6 -8 -13z"/>
<path d="M1890 2035 c0 -8 2 -15 4 -15 2 0 6 7 10 15 3 8 1 15 -4 15 -6 0 -10
-7 -10 -15z"/>
<path d="M1854 1909 c-3 -6 0 -15 7 -20 13 -8 5 -13 -14 -10 -5 1 -6 -3 -2 -9
5 -8 11 -7 21 1 10 8 11 15 4 24 -5 6 -7 15 -3 18 3 4 4 7 0 7 -3 0 -9 -5 -13
-11z"/>
<path d="M2016 1527 c3 -10 9 -15 12 -12 3 3 0 11 -7 18 -10 9 -11 8 -5 -6z"/>
<path d="M1990 1520 c0 -5 5 -10 11 -10 5 0 7 5 4 10 -3 6 -8 10 -11 10 -2 0
-4 -4 -4 -10z"/>
<path d="M2667 2599 c7 -7 15 -10 18 -7 3 3 -2 9 -12 12 -14 6 -15 5 -6 -5z"/>
<path d="M1300 2546 c0 -2 8 -10 18 -17 15 -13 16 -12 3 4 -13 16 -21 21 -21
13z"/>
<path d="M2710 2381 c0 -6 4 -13 10 -16 6 -3 7 1 4 9 -7 18 -14 21 -14 7z"/>
<path d="M2100 2280 c8 -5 20 -10 25 -10 6 0 3 5 -5 10 -8 5 -19 10 -25 10 -5
0 -3 -5 5 -10z"/>
<path d="M2117 1954 c7 -3 9 -13 6 -22 -4 -14 -3 -14 5 -2 12 16 7 30 -11 29
-9 0 -9 -2 0 -5z"/>
<path d="M2140 1926 c0 -2 8 -10 18 -17 15 -13 16 -12 3 4 -13 16 -21 21 -21
13z"/>
<path d="M2115 1900 c-3 -5 -1 -10 4 -10 6 0 11 5 11 10 0 6 -2 10 -4 10 -3 0
-8 -4 -11 -10z"/>
<path d="M1675 1881 c-3 -5 -2 -12 3 -15 5 -3 9 1 9 9 0 17 -3 19 -12 6z"/>
<path d="M2150 1881 c0 -6 4 -12 8 -15 5 -3 9 1 9 9 0 8 -4 15 -9 15 -4 0 -8
-4 -8 -9z"/>
<path d="M1700 1866 c0 -2 7 -7 16 -10 8 -3 12 -2 9 4 -6 10 -25 14 -25 6z"/>
<path d="M1855 1700 c3 -5 8 -10 11 -10 2 0 4 5 4 10 0 6 -5 10 -11 10 -5 0
-7 -4 -4 -10z"/>
<path d="M1881 1676 c-9 -11 -9 -16 1 -22 7 -4 10 -4 6 1 -4 4 -3 14 3 22 6 7
9 13 6 13 -2 0 -10 -6 -16 -14z"/>
<path d="M1913 1625 c0 -7 6 -11 14 -8 7 3 13 6 13 8 0 2 -6 5 -13 8 -8 3 -14
-1 -14 -8z"/>
<path d="M2229 1463 c-13 -16 -12 -17 4 -4 9 7 17 15 17 17 0 8 -8 3 -21 -13z"/>
<path d="M2280 1460 c-9 -6 -10 -10 -3 -10 6 0 15 5 18 10 8 12 4 12 -15 0z"/>
<path d="M2195 1431 c-3 -5 -2 -12 3 -15 5 -3 9 1 9 9 0 17 -3 19 -12 6z"/>
<path d="M1855 1400 c-3 -5 -1 -10 4 -10 6 0 11 5 11 10 0 6 -2 10 -4 10 -3 0
-8 -4 -11 -10z"/>
<path d="M2114 1366 c1 -8 5 -18 8 -22 4 -3 5 1 4 10 -1 8 -5 18 -8 22 -4 3
-5 -1 -4 -10z"/>
<path d="M1910 1366 c0 -2 7 -7 16 -10 8 -3 12 -2 9 4 -6 10 -25 14 -25 6z"/>
<path d="M2010 1361 c0 -6 4 -13 10 -16 6 -3 7 1 4 9 -7 18 -14 21 -14 7z"/>
<path d="M196 3402 c-3 -5 1 -9 9 -9 8 0 12 4 9 9 -3 4 -7 8 -9 8 -2 0 -6 -4
-9 -8z"/>
<path d="M275 3261 c-6 -11 13 -26 22 -17 4 3 1 6 -6 6 -7 0 -9 5 -6 10 3 6 4
10 1 10 -3 0 -7 -4 -11 -9z"/>
<path d="M36 3027 c3 -10 9 -15 12 -12 3 3 0 11 -7 18 -10 9 -11 8 -5 -6z"/>
<path d="M2490 2980 c0 -5 5 -10 11 -10 5 0 7 5 4 10 -3 6 -8 10 -11 10 -2 0
-4 -4 -4 -10z"/>
<path d="M60 2976 c0 -2 7 -6 15 -10 8 -3 15 -1 15 4 0 6 -7 10 -15 10 -8 0
-15 -2 -15 -4z"/>
<path d="M2430 2916 c4 -4 16 -4 26 2 16 9 14 10 -8 9 -15 -1 -23 -6 -18 -11z"/>
<path d="M2425 2820 c-3 -6 1 -7 9 -4 18 7 21 14 7 14 -6 0 -13 -4 -16 -10z"/>
<path d="M3910 2799 c0 -5 5 -7 10 -4 6 3 10 8 10 11 0 2 -4 4 -10 4 -5 0 -10
-5 -10 -11z"/>
<path d="M95 2740 c3 -5 8 -10 11 -10 2 0 4 5 4 10 0 6 -5 10 -11 10 -5 0 -7
-4 -4 -10z"/>
<path d="M3876 2742 c-3 -5 1 -9 9 -9 8 0 12 4 9 9 -3 4 -7 8 -9 8 -2 0 -6 -4
-9 -8z"/>
<path d="M3833 2535 c0 -8 4 -12 9 -9 5 3 6 10 3 15 -9 13 -12 11 -12 -6z"/>
<path d="M3699 2281 c-13 -11 -22 -21 -19 -23 3 -2 16 6 29 19 29 28 22 30
-10 4z"/>
<path d="M3630 1970 c-8 -5 -12 -12 -9 -15 4 -3 12 1 19 10 14 17 11 19 -10 5z"/>
<path d="M3666 1962 c-3 -5 1 -9 9 -9 8 0 15 4 15 9 0 4 -4 8 -9 8 -6 0 -12
-4 -15 -8z"/>
<path d="M3575 1919 c-4 -6 -4 -13 -1 -16 3 -4 6 -1 6 6 0 7 5 9 12 5 7 -4 8
-3 4 4 -9 15 -13 15 -21 1z"/>
<path d="M3540 1896 c-9 -11 -9 -19 0 -33 11 -17 11 -17 6 1 -4 10 -1 25 5 32
6 8 9 14 6 14 -2 0 -10 -7 -17 -14z"/>
<path d="M470 1890 c0 -5 5 -10 11 -10 5 0 7 5 4 10 -3 6 -8 10 -11 10 -2 0
-4 -4 -4 -10z"/>
<path d="M3596 1887 c3 -10 9 -15 12 -12 3 3 0 11 -7 18 -10 9 -11 8 -5 -6z"/>
<path d="M456 1842 c-3 -5 1 -9 9 -9 8 0 12 4 9 9 -3 4 -7 8 -9 8 -2 0 -6 -4
-9 -8z"/>
<path d="M3536 1738 c3 -5 10 -6 15 -3 13 9 11 12 -6 12 -8 0 -12 -4 -9 -9z"/>
<path d="M536 1547 c3 -10 9 -15 12 -12 3 3 0 11 -7 18 -10 9 -11 8 -5 -6z"/>
<path d="M579 1521 c8 -5 10 -14 6 -22 -6 -11 -5 -11 5 -2 14 12 6 33 -13 33
-8 0 -7 -3 2 -9z"/>
<path d="M3428 1503 c7 -3 16 -2 19 1 4 3 -2 6 -13 5 -11 0 -14 -3 -6 -6z"/>
<path d="M666 1445 c4 -8 11 -15 16 -15 6 0 5 6 -2 15 -7 8 -14 15 -16 15 -2
0 -1 -7 2 -15z"/>
<path d="M3349 1443 c-13 -16 -12 -17 4 -4 16 13 21 21 13 21 -2 0 -10 -8 -17
-17z"/>
<path d="M3375 1351 c-3 -5 -2 -12 3 -15 5 -3 9 1 9 9 0 17 -3 19 -12 6z"/>
<path d="M531 1136 c-12 -12 -21 -27 -21 -33 0 -7 -15 -9 -41 -6 -29 4 -44 2
-49 -8 -11 -17 11 -33 22 -16 5 7 8 -3 7 -23 -3 -52 0 -60 15 -60 19 0 27 -25
13 -39 -8 -8 -8 -11 2 -11 7 0 9 -5 6 -10 -4 -6 -12 -7 -18 -4 -7 4 -8 3 -4
-2 9 -9 14 -11 47 -13 11 0 20 -6 20 -12 0 -5 -4 -8 -8 -5 -5 3 -9 -1 -9 -9 0
-8 4 -12 8 -10 8 5 22 -22 23 -45 0 -8 12 -20 25 -26 21 -8 33 -6 67 13 56 31
81 60 66 75 -13 13 -17 52 -4 44 4 -2 14 -1 22 4 12 7 12 11 -1 26 -8 9 -13
25 -11 36 2 11 -3 18 -13 18 -11 0 -14 7 -11 24 2 14 1 26 -4 28 -4 2 -10 12
-12 23 -9 58 -97 84 -137 41z m85 -28 l19 -21 -27 17 c-25 16 -47 8 -34 -13 3
-5 -6 -8 -19 -8 -27 0 -33 15 -13 35 19 19 53 14 74 -10z m-104 -65 c6 -16 13
-36 15 -47 3 -15 0 -16 -10 -7 -8 6 -16 9 -19 6 -2 -3 -5 2 -5 10 0 8 4 12 9
9 4 -3 8 0 8 5 0 6 -4 11 -8 11 -4 0 -8 9 -8 20 0 27 4 25 18 -7z m72 2 c16
-17 30 -20 21 -5 -4 6 1 7 11 3 14 -5 12 -9 -11 -20 -22 -12 -30 -12 -39 -2
-8 9 -8 10 4 5 9 -5 8 -2 -2 7 -10 8 -18 17 -18 21 0 11 18 6 34 -9z m96 -57
c0 -4 -4 -9 -10 -9 -5 -1 -14 -3 -20 -4 -5 -1 -16 -3 -22 -4 -9 -1 -8 -4 2
-11 13 -9 13 -10 0 -11 -8 -1 -18 -1 -22 0 -5 0 -8 -4 -8 -10 0 -5 -4 -7 -10
-4 -5 3 -10 -1 -10 -10 0 -9 -4 -14 -9 -11 -5 3 -7 15 -4 26 3 11 10 17 16 13
5 -3 15 0 21 8 23 28 76 47 76 27z m-123 -63 c0 -8 -4 -15 -9 -15 -4 0 -8 7
-8 15 0 8 4 15 8 15 5 0 9 -7 9 -15z m123 -5 c0 -5 -5 -10 -11 -10 -5 0 -7 5
-4 10 3 6 8 10 11 10 2 0 4 -4 4 -10z m-47 -46 c-10 -7 -24 -14 -30 -14 -7 0
-13 -5 -13 -12 0 -6 -3 -8 -7 -4 -10 9 47 57 59 50 5 -3 1 -12 -9 -20z"/>
<path d="M3462 1152 c-26 -4 -40 -27 -37 -64 1 -15 -2 -25 -6 -23 -4 3 -14 -2
-22 -10 -9 -8 -20 -15 -25 -15 -6 0 -8 -10 -5 -22 3 -13 3 -20 -2 -16 -11 11
-36 -18 -29 -35 3 -10 -2 -18 -15 -22 -12 -3 -21 -11 -21 -16 0 -5 -5 -8 -12
-6 -7 1 -13 -4 -14 -10 -1 -7 -3 -16 -4 -20 -1 -5 -2 -11 -1 -16 1 -4 -12 -10
-28 -13 -37 -8 -45 -42 -18 -83 10 -17 23 -31 27 -31 4 0 10 -6 13 -14 9 -24
-20 -12 -43 17 -12 15 -19 27 -15 27 4 0 0 7 -9 15 -17 17 -36 20 -36 5 0 -5
-9 -10 -20 -10 -11 0 -20 -5 -20 -10 0 -19 -24 -37 -42 -32 -12 3 -18 -1 -18
-12 0 -10 -8 -16 -21 -16 -12 0 -27 -7 -33 -15 -10 -13 -14 -12 -36 8 -25 23
-28 24 -78 11 -29 -8 -66 -21 -82 -29 -16 -8 -33 -15 -37 -14 -19 3 -30 -2
-30 -15 0 -17 40 -29 67 -21 16 5 17 2 10 -31 -5 -20 -13 -40 -18 -43 -4 -3
-12 -14 -15 -25 -6 -16 -4 -17 18 -12 21 5 25 3 23 -11 -2 -10 -7 -21 -13 -25
-6 -5 -5 -8 4 -8 11 0 11 -3 1 -15 -21 -25 17 -32 40 -7 26 28 60 38 72 21 7
-11 8 -9 6 6 -2 13 3 21 17 22 51 7 60 9 62 16 2 4 10 21 18 37 9 17 12 30 7
30 -4 0 -13 14 -20 32 -9 24 -9 35 0 43 8 7 9 5 5 -7 -3 -10 1 -19 10 -22 9
-4 13 -9 10 -13 -4 -3 -2 -12 3 -19 6 -6 9 -18 8 -25 -2 -9 4 -13 15 -11 10 2
26 -3 35 -10 12 -10 14 -10 8 0 -4 7 -2 12 5 12 7 0 10 3 6 6 -3 4 1 14 10 22
10 10 12 17 5 20 -6 2 -9 11 -6 20 5 15 4 15 -6 0 -16 -26 -26 -22 -44 14 -18
36 -11 53 10 24 13 -19 14 -18 10 11 -2 21 1 30 10 29 22 -3 26 -13 14 -36 -8
-14 -8 -20 -1 -16 6 4 13 -4 17 -18 5 -22 24 -35 60 -42 5 -1 10 8 10 20 -1
11 4 21 9 21 6 0 9 -8 9 -18 -1 -10 1 -15 5 -12 3 4 6 12 6 18 1 7 7 11 14 9
7 -1 9 2 6 8 -4 6 1 18 11 26 11 9 13 13 7 9 -7 -3 -13 -2 -13 3 0 5 9 12 21
15 16 4 19 2 14 -11 -3 -9 6 -3 19 13 14 17 25 34 26 38 0 5 6 5 13 1 8 -6 8
-3 -1 9 -12 14 -11 16 7 12 15 -3 18 0 14 13 -3 9 -3 14 2 10 4 -4 15 -2 23 5
13 10 14 8 8 -13 -5 -18 -5 -21 3 -10 5 8 7 26 4 41 -3 15 0 30 7 34 7 4 1 17
-19 36 -17 16 -31 34 -31 41 0 6 13 -3 29 -20 16 -16 32 -28 35 -24 3 3 6 -1
6 -8 0 -9 5 -8 19 4 10 10 18 25 16 34 -2 9 -4 20 -4 24 -1 4 -7 5 -15 2 -8
-3 -21 5 -30 18 -9 13 -20 22 -23 20 -4 -2 -9 1 -11 7 -5 15 26 3 64 -25 20
-14 35 -19 44 -14 8 5 17 7 20 5 3 -2 6 5 6 15 0 10 -4 16 -8 14 -4 -3 -8 2
-8 10 0 9 3 15 8 14 17 -6 49 39 50 70 1 36 -22 45 -31 12 -5 -21 -26 -28 -28
-10 -1 6 -3 15 -4 20 -1 6 -3 19 -4 29 -1 21 -16 29 -49 23z m28 -52 c0 -5 -4
-10 -10 -10 -5 0 -10 5 -10 10 0 6 5 10 10 10 6 0 10 -4 10 -10z m-26 -61 c-3
-6 0 -10 7 -8 26 3 36 -1 36 -16 0 -8 -4 -15 -9 -15 -4 0 -8 4 -8 8 0 4 -17
14 -37 22 -33 11 -35 14 -18 20 23 9 38 3 29 -11z m-106 -173 c12 -14 19 -27
15 -29 -4 -3 -21 8 -36 24 -16 16 -22 29 -15 29 7 0 23 -11 36 -24z m-48 -50
c0 5 5 1 11 -8 14 -25 12 -33 -10 -34 -20 -1 -35 21 -26 37 4 5 -1 6 -9 3 -9
-3 -16 -2 -16 4 0 18 24 20 38 4 6 -9 12 -12 12 -6z m-143 -72 c-3 -3 -12 -4
-19 -1 -8 3 -5 6 6 6 11 1 17 -2 13 -5z m27 -49 c-4 -8 -9 -15 -13 -15 -4 0
-8 7 -8 15 0 8 6 15 13 15 8 0 11 -6 8 -15z m-246 -41 c2 -14 -3 -20 -17 -20
-11 0 -18 4 -15 7 2 4 -1 11 -7 15 -8 4 -7 9 2 15 20 12 34 6 37 -17z m19 -91
c-3 -3 -11 -2 -17 2 -9 6 -9 10 1 16 14 8 27 -7 16 -18z"/>
<path d="M3214 1098 c-4 -7 -4 -10 1 -6 4 4 15 2 24 -5 14 -11 14 -10 2 6 -16
20 -18 21 -27 5z"/>
<path d="M830 1085 c0 -8 4 -15 10 -15 5 0 7 7 4 15 -4 8 -8 15 -10 15 -2 0
-4 -7 -4 -15z"/>
<path d="M775 1080 c3 -5 8 -10 11 -10 2 0 4 5 4 10 0 6 -5 10 -11 10 -5 0 -7
-4 -4 -10z"/>
<path d="M877 1079 c7 -7 15 -10 18 -7 3 3 -2 9 -12 12 -14 6 -15 5 -6 -5z"/>
<path d="M1650 1056 c0 -2 8 -10 18 -17 15 -13 16 -12 3 4 -13 16 -21 21 -21
13z"/>
<path d="M2311 1031 c-18 -14 -21 -20 -11 -26 9 -6 11 -4 5 5 -6 10 -3 12 13
8 21 -6 47 13 35 25 -10 10 -16 8 -42 -12z m39 5 c0 -3 -4 -8 -10 -11 -5 -3
-10 -1 -10 4 0 6 5 11 10 11 6 0 10 -2 10 -4z"/>
<path d="M1690 1031 c0 -5 5 -13 10 -16 6 -3 10 -2 10 4 0 5 -4 13 -10 16 -5
3 -10 2 -10 -4z"/>
<path d="M1616 1018 c3 -5 15 -8 25 -5 16 4 18 1 15 -19 -3 -13 -1 -22 3 -19
5 2 8 14 7 26 -1 16 -8 23 -29 25 -17 2 -25 -1 -21 -8z"/>
<path d="M1780 1020 c0 -5 5 -10 11 -10 5 0 7 5 4 10 -3 6 -8 10 -11 10 -2 0
-4 -4 -4 -10z"/>
<path d="M2359 1013 c-11 -15 -11 -16 1 -6 11 10 16 9 27 -5 13 -15 13 -15 3
6 -13 27 -14 27 -31 5z"/>
<path d="M2465 1008 c8 -21 14 -22 35 -7 13 9 13 10 -1 6 -9 -3 -22 0 -28 6
-9 9 -11 8 -6 -5z"/>
<path d="M1730 1002 c0 -4 10 -9 22 -9 18 -2 20 0 8 7 -18 12 -30 13 -30 2z"/>
<path d="M2194 979 c-2 -33 4 -33 11 -1 2 12 1 24 -3 26 -4 2 -8 -9 -8 -25z"/>
<path d="M910 980 c0 -5 7 -7 15 -4 8 4 15 8 15 10 0 2 -7 4 -15 4 -8 0 -15
-4 -15 -10z"/>
<path d="M2233 975 c0 -8 4 -12 9 -9 5 3 6 10 3 15 -9 13 -12 11 -12 -6z"/>
<path d="M2360 980 c-9 -6 -10 -10 -3 -10 6 0 15 5 18 10 8 12 4 12 -15 0z"/>
<path d="M1819 978 c-6 -20 -6 -39 0 -42 4 -3 7 6 7 20 0 20 -4 32 -7 22z"/>
<path d="M1857 969 c7 -7 15 -10 18 -7 3 3 -2 9 -12 12 -14 6 -15 5 -6 -5z"/>
<path d="M2115 940 c-3 -5 -1 -10 4 -10 6 0 11 5 11 10 0 6 -2 10 -4 10 -3 0
-8 -4 -11 -10z"/>
<path d="M1502 917 c10 -8 14 -18 10 -22 -4 -5 -1 -5 6 -1 17 10 15 14 -10 26
-21 10 -21 10 -6 -3z"/>
<path d="M953 905 c0 -8 4 -12 9 -9 5 3 6 10 3 15 -9 13 -12 11 -12 -6z"/>
<path d="M1404 894 c-18 -14 -18 -15 4 -4 12 6 22 13 22 15 0 8 -5 6 -26 -11z"/>
<path d="M2019 908 c-6 -20 -6 -39 0 -42 4 -3 7 6 7 20 0 20 -4 32 -7 22z"/>
<path d="M2548 903 c6 -2 18 -2 25 0 6 3 1 5 -13 5 -14 0 -19 -2 -12 -5z"/>
<path d="M977 893 c-10 -9 -9 -23 1 -23 5 0 9 7 9 15 0 17 -1 18 -10 8z"/>
<path d="M1475 880 c3 -5 8 -10 11 -10 2 0 4 5 4 10 0 6 -5 10 -11 10 -5 0 -7
-4 -4 -10z"/>
<path d="M3475 880 c-3 -5 -1 -10 4 -10 6 0 11 5 11 10 0 6 -2 10 -4 10 -3 0
-8 -4 -11 -10z"/>
<path d="M2353 865 c0 -8 4 -12 9 -9 5 3 6 10 3 15 -9 13 -12 11 -12 -6z"/>
<path d="M1379 867 c-6 -16 -5 -36 2 -31 5 3 6 10 3 16 -5 7 -1 9 9 5 9 -3 18
-3 21 1 3 4 -4 9 -15 9 -10 1 -19 1 -20 0z"/>
<path d="M514 849 c-3 -6 -2 -15 3 -20 5 -5 9 -1 9 11 0 23 -2 24 -12 9z"/>
<path d="M1300 845 c-7 -9 -11 -17 -9 -20 3 -2 10 5 17 15 14 24 10 26 -8 5z"/>
<path d="M2250 850 c-9 -6 -10 -10 -3 -10 6 0 15 5 18 10 8 12 4 12 -15 0z"/>
<path d="M2649 843 c-13 -16 -12 -17 4 -4 16 13 21 21 13 21 -2 0 -10 -8 -17
-17z"/>
<path d="M685 840 c-3 -6 1 -7 9 -4 18 7 21 14 7 14 -6 0 -13 -4 -16 -10z"/>
<path d="M1555 840 c3 -5 8 -10 11 -10 2 0 4 5 4 10 0 6 -5 10 -11 10 -5 0 -7
-4 -4 -10z"/>
<path d="M1776 842 c-3 -5 1 -9 9 -9 8 0 12 4 9 9 -3 4 -7 8 -9 8 -2 0 -6 -4
-9 -8z"/>
<path d="M2366 842 c-3 -5 1 -9 9 -9 8 0 12 4 9 9 -3 4 -7 8 -9 8 -2 0 -6 -4
-9 -8z"/>
<path d="M808 833 c-27 -7 -22 -33 6 -31 17 2 22 7 18 20 -2 10 -5 17 -6 17 0
-1 -9 -3 -18 -6z"/>
<path d="M1005 820 c-3 -6 1 -7 9 -4 18 7 21 14 7 14 -6 0 -13 -4 -16 -10z"/>
<path d="M1725 820 c-3 -6 1 -7 9 -4 18 7 21 14 7 14 -6 0 -13 -4 -16 -10z"/>
<path d="M1800 820 c-12 -7 -10 -9 7 -7 12 0 19 5 17 9 -6 10 -6 10 -24 -2z"/>
<path d="M2813 816 c0 -8 6 -12 14 -9 7 3 10 9 7 14 -8 14 -21 11 -21 -5z"/>
<path d="M655 810 c-4 -6 -10 -8 -14 -6 -4 3 -13 1 -20 -4 -9 -5 -3 -7 16 -7
17 1 30 7 30 14 0 16 -4 16 -12 3z"/>
<path d="M726 797 c-2 -10 -9 -16 -15 -12 -7 3 -8 0 -5 -9 4 -11 0 -16 -11
-16 -10 0 -13 5 -9 12 4 7 3 8 -5 4 -9 -6 -9 -11 0 -22 10 -13 6 -18 -13 -15
-5 0 -8 -6 -8 -15 0 -9 -8 -23 -17 -30 -17 -13 -17 -14 0 -8 9 3 17 2 17 -4 0
-16 35 -20 55 -6 17 12 17 14 2 14 -15 0 -14 3 5 25 12 14 28 25 35 25 8 0 11
5 7 12 -4 7 -3 8 4 4 18 -11 -7 -56 -27 -48 -13 5 -14 3 -4 -9 10 -12 8 -17
-7 -26 -20 -13 -17 -53 4 -53 19 -1 58 -39 53 -53 -3 -7 3 -13 14 -13 14 0 16
3 6 15 -10 12 -9 14 5 8 20 -7 37 11 33 36 -2 9 3 17 11 17 16 0 9 -26 -15
-54 -15 -18 -12 -25 16 -29 5 0 14 -6 20 -13 7 -7 21 -11 30 -10 10 2 24 -4
31 -13 11 -14 11 -14 5 3 -5 15 -3 17 8 11 28 -16 48 -38 43 -46 -3 -5 3 -6
12 -2 13 5 15 3 9 -8 -7 -11 -5 -11 10 1 17 13 18 13 11 0 -4 -8 0 -6 8 4 11
14 16 16 16 6 0 -14 33 26 36 43 1 4 3 10 4 15 1 4 2 10 1 15 0 4 4 7 10 7 5
0 7 6 3 13 -4 6 -3 8 1 4 12 -11 15 -37 4 -37 -4 0 -6 -7 -3 -15 4 -8 1 -15
-7 -15 -7 0 -9 -3 -6 -7 4 -3 -1 -12 -11 -19 -14 -10 -15 -15 -4 -26 11 -11
12 -10 6 7 -7 18 -6 19 9 5 44 -40 47 -42 47 -26 0 8 6 18 13 22 6 4 9 4 5 -1
-4 -4 0 -14 10 -22 9 -8 11 -11 3 -7 -9 4 -12 3 -8 -4 8 -12 47 -4 47 9 0 5 7
9 16 9 11 0 15 -6 11 -20 -3 -14 -1 -18 6 -13 17 11 29 11 52 0 18 -9 19 -8 6
6 -8 11 -9 17 -3 17 6 0 16 -10 23 -21 8 -15 13 -18 18 -10 5 7 14 11 21 9 10
-2 13 12 14 51 1 39 5 55 16 58 13 4 13 3 0 -6 -10 -7 -11 -11 -3 -11 8 0 11
-9 9 -22 -3 -13 -5 -23 -6 -23 -1 0 -3 -8 -5 -17 -2 -10 7 -26 21 -37 13 -10
20 -22 16 -26 -4 -5 -1 -5 6 -1 7 4 10 11 7 16 -3 4 2 13 10 20 18 15 20 0 5
-33 -10 -22 -10 -22 6 1 18 23 39 30 31 10 -3 -9 5 -13 23 -13 16 0 26 3 23 8
-2 4 -1 7 4 7 4 0 19 9 33 20 l25 19 -32 -5 c-41 -6 -53 13 -22 37 13 9 28 15
33 12 5 -3 6 -1 2 5 -3 5 -2 12 4 14 13 4 -14 44 -40 58 -13 7 -24 5 -41 -9
-22 -17 -25 -27 -33 -81 -5 -38 -25 -37 -21 2 2 18 4 35 5 38 1 3 2 9 1 14 -1
5 3 13 10 17 8 4 2 12 -19 23 -26 13 -32 14 -42 1 -10 -12 -14 -12 -26 -1 -8
8 -29 13 -49 12 -20 -2 -40 2 -46 10 -9 11 -14 11 -26 -1 -15 -15 -38 -11 -28
5 3 4 -3 11 -12 15 -10 3 -19 1 -21 -4 -5 -15 -21 -14 -38 4 -11 10 -21 12
-32 6 -13 -7 -23 -3 -40 14 -19 20 -38 24 -62 15 -3 -1 -9 -2 -13 -1 -5 1 -11
-8 -14 -19 -3 -11 -9 -20 -14 -20 -5 0 -6 -6 -3 -13 2 -7 -3 -21 -12 -32 -8
-11 -12 -14 -8 -6 12 24 13 61 1 61 -7 0 2 9 19 19 41 25 47 36 30 50 -11 10
-16 8 -24 -5 -9 -17 -11 -17 -27 0 -10 10 -26 15 -36 13 -20 -5 -53 25 -42 38
5 4 2 5 -4 1 -7 -4 -13 -2 -13 5 0 6 -8 9 -20 6 -15 -4 -20 0 -20 15 0 16 -5
19 -25 16 -13 -3 -22 -2 -20 3 10 14 -7 37 -30 41 -17 4 -25 0 -29 -15z m107
-104 c-7 -3 -22 -24 -33 -49 -12 -24 -26 -42 -30 -39 -12 7 -2 35 23 63 11 12
16 22 11 22 -5 0 -2 4 6 9 8 6 19 7 24 4 6 -4 6 -8 -1 -10z m97 -63 c0 -5 -2
-10 -4 -10 -3 0 -8 5 -11 10 -3 6 -1 10 4 10 6 0 11 -4 11 -10z m130 -51 c0
-10 -4 -19 -10 -19 -5 0 -7 -7 -4 -15 4 -8 1 -15 -5 -15 -6 0 -10 11 -9 24 1
14 6 22 11 19 5 -3 6 4 2 17 -5 15 -4 20 4 16 6 -4 11 -16 11 -27z m-142 -14
c-3 -3 -9 2 -12 12 -6 14 -5 15 5 6 7 -7 10 -15 7 -18z m272 -14 c0 -24 -13
-71 -20 -71 -4 0 -4 16 0 34 4 19 5 37 2 40 -3 4 0 6 6 6 7 0 12 -4 12 -9z
m65 -42 c-8 -20 -11 -40 -8 -43 4 -3 2 -6 -4 -6 -6 0 -9 16 -8 38 4 50 3 49
19 49 12 0 12 -6 1 -38z m78 21 c3 -11 2 -20 -3 -20 -10 0 -8 -33 3 -41 5 -3
2 -9 -7 -12 -9 -4 -16 -2 -16 4 0 6 -5 7 -11 3 -8 -4 -8 0 0 15 7 12 9 26 6
31 -3 6 -2 10 4 10 6 0 8 7 5 15 -4 8 -2 15 4 15 5 0 12 -9 15 -20z m217 -24
c0 -2 -7 -7 -16 -10 -8 -3 -12 -2 -9 4 6 10 25 14 25 6z"/>
<path d="M1137 805 c-4 -8 -3 -16 1 -19 4 -3 9 4 9 15 2 23 -3 25 -10 4z"/>
<path d="M1234 803 c1 -12 5 -25 9 -28 4 -3 5 -2 2 2 -3 3 3 16 12 27 15 17
15 18 1 8 -13 -10 -17 -10 -21 0 -3 7 -5 3 -3 -9z"/>
<path d="M2195 810 c-4 -6 -11 -7 -17 -4 -7 4 -8 2 -4 -5 6 -9 11 -9 22 0 14
11 18 19 10 19 -3 0 -8 -5 -11 -10z"/>
<path d="M1280 800 c-9 -6 -10 -10 -3 -10 6 0 15 5 18 10 8 12 4 12 -15 0z"/>
<path d="M1899 793 c-13 -16 -12 -17 4 -4 16 13 21 21 13 21 -2 0 -10 -8 -17
-17z"/>
<path d="M2130 798 c0 -6 3 -8 7 -5 3 4 13 1 22 -6 14 -11 14 -10 2 6 -15 20
-31 22 -31 5z"/>
<path d="M2850 798 c0 -6 3 -8 7 -5 3 4 13 1 22 -6 14 -11 14 -10 2 6 -15 20
-31 22 -31 5z"/>
<path d="M570 780 c0 -5 5 -10 11 -10 5 0 7 5 4 10 -3 6 -8 10 -11 10 -2 0 -4
-4 -4 -10z"/>
<path d="M1836 778 c3 -5 10 -6 15 -3 13 9 11 12 -6 12 -8 0 -12 -4 -9 -9z"/>
<path d="M2016 782 c-3 -4 4 -9 15 -9 23 -2 25 3 4 10 -8 4 -16 3 -19 -1z"/>
<path d="M2835 760 c-3 -5 -1 -10 4 -10 6 0 11 5 11 10 0 6 -2 10 -4 10 -3 0
-8 -4 -11 -10z"/>
<path d="M2070 746 c0 -2 7 -7 16 -10 8 -3 12 -2 9 4 -6 10 -25 14 -25 6z"/>
<path d="M2447 610 c-4 -15 0 -20 13 -20 11 0 17 6 16 17 -4 25 -23 27 -29 3z"/>
<path d="M2517 597 c-9 -12 -17 -25 -17 -30 0 -4 -6 -5 -12 -1 -7 4 -6 -1 3
-12 9 -10 16 -26 16 -34 1 -8 4 -24 9 -34 6 -15 4 -17 -7 -11 -12 8 -12 6 0
-8 11 -15 11 -17 -2 -17 -20 0 -28 24 -14 40 9 10 9 11 0 6 -6 -3 -14 -2 -18
4 -3 5 -2 10 4 10 11 0 9 18 -6 45 -10 16 -15 18 -30 9 -10 -6 -18 -23 -18
-37 -1 -14 3 -23 7 -21 4 3 8 0 8 -5 0 -6 -7 -11 -15 -11 -11 0 -15 11 -15 41
0 36 -2 40 -15 29 -10 -9 -15 -9 -15 -1 0 6 -3 10 -7 9 -11 -2 -67 25 -75 37
-5 6 -11 6 -19 -2 -8 -8 -8 -17 2 -34 11 -22 16 -129 6 -146 -3 -4 1 -14 9
-21 11 -10 14 -10 14 0 0 9 3 9 12 0 7 -7 20 -12 29 -12 10 0 20 -6 23 -12 3
-7 4 -4 3 7 -1 14 4 20 15 19 10 -1 16 2 13 6 -3 4 1 10 9 13 9 4 12 16 9 34
l-4 28 14 -25 c7 -14 11 -29 8 -35 -8 -15 -8 -45 0 -50 4 -3 6 6 5 20 -2 16 1
22 8 18 17 -11 45 -10 43 1 -1 6 9 12 22 14 17 3 21 0 15 -9 -5 -9 -2 -10 11
-5 12 4 27 -1 44 -16 24 -22 25 -22 8 -1 -13 15 -16 27 -10 37 8 15 11 14 31
-4 25 -24 32 -25 32 -6 0 21 19 30 35 16 11 -9 18 -9 30 3 17 17 20 44 6 49
-6 2 -13 26 -17 53 -3 28 -11 53 -16 56 -12 7 -53 -2 -85 -20 -17 -9 -25 -6
-45 13 l-24 24 -17 -21z m89 -48 c3 -6 1 -16 -5 -22 -6 -6 -11 -24 -11 -40 0
-38 -24 -30 -24 9 -1 16 -4 34 -9 41 -4 7 0 13 10 16 29 8 32 7 39 -4z m49 1
c3 -5 -1 -10 -9 -10 -9 0 -16 5 -16 10 0 6 4 10 9 10 6 0 13 -4 16 -10z m-302
-63 c-4 -17 -3 -19 6 -7 8 12 10 11 8 -8 -2 -33 -22 -20 -25 17 -2 20 1 31 6
27 6 -3 8 -16 5 -29z m297 -4 c-10 -16 -11 -16 -6 0 3 9 1 17 -5 17 -6 0 -7 5
-3 11 4 7 10 7 16 1 7 -7 6 -16 -2 -29z"/>
<path d="M2786 598 c3 -5 10 -6 15 -3 13 9 11 12 -6 12 -8 0 -12 -4 -9 -9z"/>
<path d="M3153 595 c0 -8 4 -12 9 -9 4 3 8 9 8 15 0 5 -4 9 -8 9 -5 0 -9 -7
-9 -15z"/>
<path d="M746 582 c-3 -5 1 -9 9 -9 8 0 12 4 9 9 -3 4 -7 8 -9 8 -2 0 -6 -4
-9 -8z"/>
<path d="M2035 570 c-3 -5 -4 -14 0 -19 3 -5 1 -12 -4 -15 -5 -4 -12 -2 -15 2
-6 10 -28 9 -63 -3 -16 -5 -22 -17 -25 -46 -2 -27 0 -39 9 -39 18 0 16 -15 -4
-31 -11 -10 -14 -10 -9 -1 4 7 2 12 -7 12 -7 0 -14 7 -14 15 0 8 3 15 6 15 4
0 6 17 6 37 -2 47 -29 68 -51 39 -10 -14 -11 -22 -3 -27 8 -5 8 -8 0 -14 -9
-5 -9 -10 0 -21 8 -10 8 -14 1 -14 -7 0 -9 -8 -5 -17 6 -16 5 -16 -10 -4 -13
10 -14 17 -7 26 8 9 8 15 0 20 -6 4 -7 12 -1 22 14 26 -14 48 -43 35 -18 -8
-29 -7 -44 4 -19 13 -23 12 -46 -8 -21 -19 -27 -33 -29 -76 -2 -50 0 -54 32
-75 19 -12 32 -17 29 -11 -4 5 7 17 24 27 l30 17 -4 -25 c-4 -20 -3 -23 8 -14
11 9 14 9 14 0 0 -7 8 -6 24 4 18 12 26 13 32 4 5 -8 3 -9 -6 -4 -9 5 -11 4
-6 -3 4 -8 14 -9 24 -4 25 12 99 7 117 -8 12 -10 18 -11 28 -1 9 10 8 11 -8 5
-25 -9 -13 5 17 20 17 9 23 20 23 44 0 18 3 32 7 32 5 0 8 8 7 18 0 9 -3 12
-5 5 -7 -16 -34 -5 -28 12 3 7 12 16 20 19 9 3 12 1 9 -4 -3 -6 -1 -10 6 -10
7 0 10 -11 7 -30 -3 -17 0 -30 6 -30 6 0 4 -6 -4 -13 -22 -18 -22 -35 0 -42
11 -4 20 -11 20 -17 0 -6 6 -6 15 2 14 12 19 7 16 -13 -1 -5 3 -6 8 -2 6 3 8
11 5 18 -2 7 4 13 16 14 13 1 18 -2 13 -10 -5 -9 -3 -9 8 0 11 9 19 9 26 2 8
-8 17 -7 33 1 18 10 21 9 15 -1 -5 -8 -4 -10 4 -5 6 4 19 2 28 -6 15 -12 15
-11 1 12 -10 16 -13 32 -8 45 4 11 4 29 0 40 -9 24 -10 29 -10 56 0 11 -4 18
-9 15 -5 -4 -21 -2 -35 4 -14 5 -26 6 -26 2 0 -4 -10 -12 -22 -17 -20 -9 -23
-18 -23 -61 0 -34 -4 -51 -12 -51 -7 0 -14 5 -14 11 -6 53 -2 73 16 88 16 14
17 18 5 19 -8 1 -19 1 -24 0 -5 -1 -6 7 -3 19 7 28 -19 26 -44 -2 -15 -19 -18
-20 -19 -6 0 20 -16 32 -25 18z m-250 -100 c3 -38 2 -40 -26 -40 -26 0 -29 3
-29 35 0 28 4 35 20 35 11 0 20 5 20 12 0 29 13 -6 15 -42z m442 -2 c3 -40 2
-42 -10 -19 -8 12 -12 34 -9 47 6 34 14 22 19 -28z m-227 28 c0 -3 -4 -8 -10
-11 -5 -3 -10 -1 -10 4 0 6 5 11 10 11 6 0 10 -2 10 -4z m10 -56 c0 -5 -4 -10
-10 -10 -5 0 -10 5 -10 10 0 6 5 10 10 10 6 0 10 -4 10 -10z"/>
<path d="M1740 465 c0 -2 6 -8 13 -14 10 -8 14 -7 14 2 0 8 -6 14 -14 14 -7 0
-13 -1 -13 -2z"/>
<path d="M3046 557 c3 -10 9 -15 12 -12 3 3 0 11 -7 18 -10 9 -11 8 -5 -6z"/>
<path d="M3155 560 c-3 -5 -1 -10 4 -10 6 0 11 5 11 10 0 6 -2 10 -4 10 -3 0
-8 -4 -11 -10z"/>
<path d="M895 509 c-4 -6 -5 -12 -2 -15 2 -3 7 2 10 11 7 17 1 20 -8 4z"/>
<path d="M2982 507 c-8 -9 -8 -17 0 -27 8 -13 9 -12 5 1 -3 9 0 22 6 28 6 6 8
11 5 11 -3 0 -10 -6 -16 -13z"/>
<path d="M919 473 c-12 -16 -12 -17 2 -5 9 7 25 10 35 6 16 -5 16 -4 4 5 -20
15 -25 14 -41 -6z"/>
<path d="M2900 480 c0 -5 5 -10 11 -10 5 0 7 -5 3 -12 -4 -7 -3 -8 5 -4 9 6 9
11 0 22 -14 17 -19 18 -19 4z"/>
<path d="M1030 441 c0 -6 4 -13 10 -16 6 -3 7 1 4 9 -7 18 -14 21 -14 7z"/>
<path d="M1110 440 c0 -5 5 -10 11 -10 5 0 7 5 4 10 -3 6 -8 10 -11 10 -2 0
-4 -4 -4 -10z"/>
<path d="M2875 440 c3 -5 8 -10 11 -10 2 0 4 5 4 10 0 6 -5 10 -11 10 -5 0 -7
-4 -4 -10z"/>
<path d="M1265 400 c-3 -6 1 -7 9 -4 18 7 21 14 7 14 -6 0 -13 -4 -16 -10z"/>
<path d="M2513 395 c0 -8 4 -12 9 -9 5 3 6 10 3 15 -9 13 -12 11 -12 -6z"/>
<path d="M1290 386 c0 -2 7 -7 16 -10 8 -3 12 -2 9 4 -6 10 -25 14 -25 6z"/>
<path d="M1335 380 c3 -5 8 -10 11 -10 2 0 4 5 4 10 0 6 -5 10 -11 10 -5 0 -7
-4 -4 -10z"/>
<path d="M2070 381 c0 -6 4 -13 10 -16 6 -3 7 1 4 9 -7 18 -14 21 -14 7z"/>
<path d="M1834 360 c0 -13 4 -16 10 -10 7 7 7 13 0 20 -6 6 -10 3 -10 -10z"/>
<path d="M2175 360 c3 -5 8 -10 11 -10 2 0 4 5 4 10 0 6 -5 10 -11 10 -5 0 -7
-4 -4 -10z"/>
<path d="M2206 358 c3 -5 10 -6 15 -3 13 9 11 12 -6 12 -8 0 -12 -4 -9 -9z"/>
<path d="M2410 361 c0 -6 4 -13 10 -16 6 -3 7 1 4 9 -7 18 -14 21 -14 7z"/>
<path d="M1975 340 c3 -5 8 -10 11 -10 2 0 4 5 4 10 0 6 -5 10 -11 10 -5 0 -7
-4 -4 -10z"/>
<path d="M2145 340 c-3 -6 1 -7 9 -4 18 7 21 14 7 14 -6 0 -13 -4 -16 -10z"/>
</g>
</svg>
